<svg id="svg" version="1.1" xmlns="http://www.w3.org/2000/svg" style="display: block;" viewBox="0 0 225 225"><path d="M0 0 C74.25 0 148.5 0 225 0 C225 74.25 225 148.5 225 225 C150.75 225 76.5 225 0 225 C0 150.75 0 76.5 0 0 Z " transform="translate(0,0)" style="fill: #FEFEFE;"/><path d="M0 0 C-0.95531616 0.37584229 -0.95531616 0.37584229 -1.92993164 0.75927734 C-13.85882297 5.46341852 -25.76267558 10.2296652 -37.5625 15.25 C-38.49392822 15.63720215 -39.42535645 16.0244043 -40.38500977 16.42333984 C-50.01093493 20.56889443 -57.96787667 25.93575334 -62.75 35.5 C-65.18821172 42.32699282 -65.28005895 49.1982192 -65.5625 56.375 C-65.62727539 57.90833984 -65.62727539 57.90833984 -65.69335938 59.47265625 C-65.79887792 61.98165288 -65.90099213 64.49073943 -66 67 C-68 64 -68 64 -69.2265625 61.73046875 C-74.45212481 52.22811942 -80.47323625 47.8007158 -90.859375 44.6953125 C-100.41681548 42.57936175 -109.16792987 43.82794477 -118 48 C-123.24298189 51.35233085 -127.74969905 55.47548608 -132 60 C-132.3951255 46.96085845 -126.20317298 34.79580319 -117.89453125 24.94921875 C-107.1038103 13.84701308 -93.20505126 6.519543 -77.6171875 5.90625 C-73.48630667 5.85445212 -69.47077478 6.04137927 -65.36328125 6.48046875 C-45.14689406 8.55068659 -25.04587283 6.86343864 -5.83447266 -0.15673828 C-3 -1 -3 -1 0 0 Z " transform="translate(201,37)" style="fill: #F8991E;"/><path d="M0 0 C5.37128986 3.58085991 8.82571228 7.86573295 11 14 C12.15606844 21.54962958 11.3831109 28.62678582 7 35 C2.5566398 39.84224222 -1.93434683 43.47735998 -8.61328125 44.3359375 C-16.1797451 44.4454377 -21.39193787 43.41553707 -26.9765625 38.12890625 C-33.30668328 31.23871306 -34.53094137 25.77646178 -34.375 16.44921875 C-33.65227326 9.8016384 -30.32170659 6.04577412 -25.5625 1.625 C-17.74150597 -4.57785733 -8.60949251 -4.42109075 0 0 Z " transform="translate(112,94)" style="fill: #2B2A7E;"/><path d="M0 0 C1.71986758 2.57980137 2.82916881 4.87161481 4.0625 7.6875 C8.45527823 16.5117026 15.77250026 21.87711768 25 25 C34.30542447 27.83208571 42.96792047 26.22995795 51.5390625 22.09375 C54 21 54 21 57 21 C56.14277344 21.845625 55.28554687 22.69125 54.40234375 23.5625 C48.99956228 28.91469215 43.66142185 34.24025961 38.73828125 40.04296875 C35.78518422 43.36769147 32.57244491 46.43446242 29.41015625 49.55859375 C26.73655595 52.26685986 24.2628747 55.09596858 21.79296875 57.98828125 C19.01040819 61.11032632 16.01342779 64.00792683 13.015625 66.921875 C10.95840608 68.94385057 10.95840608 68.94385057 9.359375 71.265625 C8.68648437 72.12414062 8.68648437 72.12414062 8 73 C7.34 73 6.68 73 6 73 C5.92483154 72.00073486 5.84966309 71.00146973 5.7722168 69.97192383 C5.41558537 65.25173294 5.05293024 60.53201741 4.6875 55.8125 C4.58820694 54.53004395 4.58820694 54.53004395 4.48690796 53.22167969 C3.48992853 40.42868432 2.32899165 27.66714481 0.91479492 14.91333008 C0.79467041 13.81786865 0.6745459 12.72240723 0.55078125 11.59375 C0.44419189 10.65208984 0.33760254 9.71042969 0.2277832 8.74023438 C-0.01536955 5.81510417 -0.03810575 2.93387282 0 0 Z " transform="translate(65,125)" style="fill: #2B2A7F;"/><path d="M0 0 C1.65 0 3.3 0 5 0 C5.625 2.375 5.625 2.375 6 5 C5.34 5.66 4.68 6.32 4 7 C1.875 6.625 1.875 6.625 0 6 C-1.125 2.25 -1.125 2.25 0 0 Z " transform="translate(129,49)" style="fill: #FEF7F1;"/><path d="M0 0 C-5.28 1.98 -10.56 3.96 -16 6 C-16.99 5.01 -17.98 4.02 -19 3 C-16.39816412 2.30238463 -13.79416398 1.61662226 -11.1875 0.9375 C-10.08051758 0.63875977 -10.08051758 0.63875977 -8.95117188 0.33398438 C-3.33984375 -1.11328125 -3.33984375 -1.11328125 0 0 Z " transform="translate(201,37)" style="fill: #F9A63D;"/><path d="M0 0 C0.66 0.33 1.32 0.66 2 1 C-0.31 3.31 -2.62 5.62 -5 8 C-5.33 6.68 -5.66 5.36 -6 4 C-4.02 2.68 -2.04 1.36 0 0 Z " transform="translate(120,145)" style="fill: #373685;"/></svg>