<?xml version="1.0" standalone="no"?>
<!DOCTYPE svg PUBLIC "-//W3C//DTD SVG 20010904//EN"
 "http://www.w3.org/TR/2001/REC-SVG-20010904/DTD/svg10.dtd">
<svg version="1.0" xmlns="http://www.w3.org/2000/svg"
 width="322.000000pt" height="322.000000pt" viewBox="0 0 322.000000 322.000000"
 preserveAspectRatio="xMidYMid meet">

<g transform="translate(0.000000,322.000000) scale(0.100000,-0.100000)"
fill="#000000" stroke="none">
<path d="M1 2473 c1 -663 3 -737 14 -652 98 718 666 1286 1384 1384 85 11 11
13 -651 14 l-748 1 1 -747z"/>
<path d="M1770 3213 c19 -2 83 -13 143 -24 651 -121 1164 -637 1287 -1294 l18
-100 1 713 1 712 -742 -2 c-409 0 -727 -3 -708 -5z"/>
<path d="M1466 3192 c-3 -5 4 -18 15 -28 l21 -19 -24 -6 c-12 -4 -40 -7 -60
-8 -42 -1 -53 -21 -13 -21 21 0 25 -5 25 -30 0 -23 -4 -30 -20 -30 -29 0 -25
-11 16 -43 39 -32 58 -29 29 3 -22 25 -9 43 26 38 18 -2 25 -10 27 -30 2 -16
8 -28 14 -28 6 0 8 21 3 61 -6 47 -4 63 7 72 13 10 9 17 -23 45 -20 18 -40 29
-43 24z m34 -97 c0 -20 -5 -25 -25 -25 -20 0 -25 5 -25 25 0 20 5 25 25 25 20
0 25 -5 25 -25z"/>
<path d="M1570 3130 c0 -5 20 -10 45 -10 45 0 45 0 45 -35 0 -35 -29 -63 -50
-50 -16 10 -12 45 5 45 8 0 15 5 15 10 0 11 -11 13 -34 4 -23 -9 -21 -61 2
-73 10 -6 28 -7 40 -4 16 4 22 1 22 -11 0 -9 5 -16 10 -16 6 0 10 28 10 65 0
51 3 65 15 65 8 0 15 5 15 10 0 6 -30 10 -70 10 -40 0 -70 -4 -70 -10z"/>
<path d="M1725 3065 c0 -41 3 -75 6 -75 10 0 19 40 19 83 0 25 5 40 16 44 13
5 13 7 2 14 -35 23 -43 11 -43 -66z"/>
<path d="M2040 3130 c0 -6 5 -20 10 -31 13 -23 10 -23 -60 -4 -66 18 -60 17
-60 5 0 -5 6 -10 13 -10 25 0 39 -17 32 -39 -4 -13 -15 -21 -30 -21 -25 0 -38
-21 -29 -45 8 -20 51 -19 62 1 5 9 18 14 28 12 15 -3 18 -10 16 -37 -6 -51 13
-29 27 34 10 43 16 55 32 55 10 0 19 5 19 10 0 6 -4 10 -9 10 -5 0 -14 14 -21
30 -13 32 -30 49 -30 30z m-5 -90 c0 -19 -4 -24 -20 -22 -27 5 -28 7 -20 32 9
29 40 22 40 -10z m-75 -41 c0 -5 -7 -9 -15 -9 -15 0 -20 12 -9 23 8 8 24 -1
24 -14z"/>
<path d="M2080 3120 c0 -5 5 -10 10 -10 6 0 10 5 10 10 0 6 -4 10 -10 10 -5 0
-10 -4 -10 -10z"/>
<path d="M1104 3105 c-4 -8 -4 -22 -1 -30 5 -10 -10 -20 -54 -36 -61 -22 -94
-47 -46 -36 14 4 32 9 40 12 21 9 44 -50 27 -70 -7 -8 -17 -15 -22 -15 -15 0
-21 32 -7 40 18 12 7 22 -15 14 -20 -8 -21 -47 -1 -64 12 -10 21 -10 40 -2 20
9 26 8 34 -6 16 -29 24 -5 10 32 -10 27 -10 39 -1 48 15 15 39 -4 45 -35 3
-20 4 -20 11 -4 5 11 2 27 -9 43 -14 21 -21 24 -47 19 -40 -9 -34 15 8 28 39
13 40 15 18 31 -10 8 -16 17 -12 21 11 11 48 -5 48 -21 0 -8 4 -14 8 -14 5 0
15 -25 22 -55 14 -56 30 -82 30 -47 0 10 -6 39 -14 64 -12 40 -11 46 3 56 14
9 12 11 -10 11 -15 1 -32 8 -39 16 -7 8 -23 15 -37 15 -13 0 -26 -7 -29 -15z"/>
<path d="M2245 2990 c3 -5 -2 -24 -11 -41 -18 -36 -7 -79 22 -79 12 0 15 -6
11 -21 -10 -36 17 -15 45 37 17 31 33 48 43 46 33 -6 12 15 -40 41 -58 28 -80
34 -70 17z m56 -30 c18 -10 18 -13 4 -40 -16 -30 -48 -40 -60 -19 -8 13 14 69
27 69 5 0 18 -5 29 -10z"/>
<path d="M778 2903 c-32 -20 -55 -40 -52 -45 3 -4 18 1 34 12 33 23 52 10 26
-19 -9 -10 -16 -24 -16 -33 0 -21 33 -48 59 -48 20 0 22 -4 17 -27 l-7 -28 18
22 c10 11 27 23 38 26 18 4 18 5 -2 6 -26 1 -27 4 -12 33 15 28 2 36 -17 9
-18 -26 -51 -25 -68 2 -9 15 -6 21 14 37 20 15 22 21 13 31 -10 10 -9 16 4 31
28 31 10 28 -49 -9z"/>
<path d="M2397 2911 l23 -19 -21 -24 c-14 -16 -22 -19 -25 -10 -3 6 -10 12
-15 12 -6 0 -8 -19 -3 -47 8 -57 24 -81 24 -36 0 40 50 94 80 86 33 -9 23 4
-23 32 -51 29 -72 32 -40 6z"/>
<path d="M2508 2838 c17 -19 18 -26 8 -40 -7 -10 -21 -14 -37 -11 -33 6 -57
-20 -39 -42 14 -17 41 -20 56 -5 7 7 16 5 29 -4 19 -14 19 -15 2 -33 -19 -21
-22 -33 -8 -33 5 0 24 20 42 45 25 32 39 43 53 39 31 -10 14 12 -48 60 -63 49
-93 61 -58 24z m62 -54 c11 -12 10 -18 -3 -32 -16 -15 -18 -15 -34 0 -13 14
-14 20 -3 32 7 9 16 16 20 16 4 0 13 -7 20 -16z m-86 -25 c-7 -11 -34 -12 -34
-1 0 14 11 21 26 15 8 -3 11 -9 8 -14z"/>
<path d="M662 2822 c-33 -28 -40 -42 -21 -42 6 0 20 -11 31 -25 22 -29 59 -33
83 -9 17 18 15 41 -4 36 -6 -1 -25 5 -42 13 l-30 16 23 19 c16 14 19 19 8 19
-8 0 -30 -12 -48 -27z m76 -60 c2 -7 -4 -12 -14 -12 -18 0 -54 27 -54 42 0 12
63 -16 68 -30z"/>
<path d="M585 2760 c-14 -15 -15 -20 -4 -21 8 0 30 -20 49 -44 19 -24 41 -44
48 -44 13 -1 -38 71 -59 85 -5 3 -7 14 -4 25 8 25 -7 24 -30 -1z"/>
<path d="M2640 2738 c0 -6 -18 -34 -41 -60 -23 -27 -38 -52 -35 -56 4 -3 25
15 48 41 32 38 44 46 62 41 20 -6 20 -5 -3 20 -28 29 -31 31 -31 14z"/>
<path d="M518 2699 c-21 -17 -35 -35 -32 -41 3 -5 14 -2 25 8 15 14 21 14 34
4 18 -15 20 -37 3 -43 -23 -8 -2 -17 51 -24 35 -4 51 -2 51 6 0 6 -13 11 -30
11 -16 0 -30 5 -30 11 0 6 -9 24 -21 40 -17 24 -18 33 -9 44 21 25 -3 16 -42
-16z"/>
<path d="M2676 2654 c-21 -25 -27 -41 -22 -58 9 -36 42 -43 71 -16 23 22 55
22 55 1 0 -5 -20 -26 -45 -46 -25 -21 -42 -41 -39 -46 3 -5 27 9 53 31 34 29
53 39 66 34 17 -7 17 -6 4 13 -15 22 -108 124 -112 122 -1 0 -15 -16 -31 -35z
m61 -20 c7 -19 -34 -55 -54 -47 -18 7 -16 23 4 45 20 22 42 23 50 2z"/>
<path d="M905 2539 c-129 -95 -245 -222 -324 -358 -36 -62 -39 -71 -28 -95 16
-34 45 -41 115 -27 59 12 224 85 243 107 6 7 17 61 25 121 7 59 20 152 27 206
8 53 13 97 13 97 -1 0 -32 -23 -71 -51z"/>
<path d="M1287 2584 c-3 -3 -51 -5 -107 -5 -109 1 -135 -6 -143 -41 -2 -13
-16 -68 -30 -123 -33 -128 -47 -215 -34 -215 31 0 336 236 342 264 13 69 13
97 -1 111 -17 17 -18 17 -27 9z m-124 -31 c-7 -2 -21 -2 -30 0 -10 3 -4 5 12
5 17 0 24 -2 18 -5z"/>
<path d="M2083 2575 c0 -8 4 -15 9 -15 4 0 8 4 8 9 0 6 -4 12 -8 15 -5 3 -9
-1 -9 -9z"/>
<path d="M2125 2580 c-3 -5 -1 -10 4 -10 6 0 11 5 11 10 0 6 -2 10 -4 10 -3 0
-8 -4 -11 -10z"/>
<path d="M2255 2560 c3 -19 29 -82 58 -140 l52 -105 94 -13 c63 -9 97 -10 104
-3 26 26 -234 269 -275 255 -13 -4 -21 2 -28 18 -9 20 -10 18 -5 -12z"/>
<path d="M1970 2570 c0 -4 6 -11 13 -13 10 -5 -45 -11 -65 -8 -11 1 -11 3 15
-64 l23 -58 69 -24 c92 -31 263 -75 276 -71 8 3 -67 139 -105 191 -9 11 -33
19 -75 23 -44 5 -61 11 -57 20 3 9 -9 12 -45 12 -27 1 -49 -3 -49 -8z m77 -16
c-3 -3 -12 -4 -19 -1 -8 3 -5 6 6 6 11 1 17 -2 13 -5z"/>
<path d="M2610 2495 c1 -43 60 -77 73 -42 6 16 -11 47 -25 47 -9 0 -9 -3 0
-12 7 -7 12 -18 12 -25 0 -23 -20 -14 -40 20 -16 25 -20 28 -20 12z"/>
<path d="M1860 2470 c0 -5 5 -10 11 -10 5 0 7 5 4 10 -3 6 -8 10 -11 10 -2 0
-4 -4 -4 -10z"/>
<path d="M1375 2439 c-20 -21 -44 -142 -44 -219 0 -45 0 -45 24 30 34 105 55
199 45 205 -4 2 -15 -4 -25 -16z"/>
<path d="M1773 2404 c-3 -8 -1 -20 6 -27 8 -8 11 -8 11 0 0 6 3 18 6 27 3 9 1
16 -5 16 -7 0 -14 -7 -18 -16z"/>
<path d="M1837 2393 c-19 -68 -18 -70 31 -130 80 -95 140 -158 145 -153 6 6
-38 137 -73 219 -18 41 -31 57 -56 67 -42 18 -42 18 -47 -3z"/>
<path d="M1265 2354 c-16 -14 -88 -64 -160 -111 -71 -48 -136 -94 -142 -102
-9 -10 -13 -56 -13 -147 0 -200 19 -264 84 -279 45 -10 126 80 195 216 52 104
53 107 61 225 13 189 14 213 9 218 -2 2 -17 -7 -34 -20z"/>
<path d="M1516 2322 c15 -31 33 -73 41 -92 8 -19 40 -79 70 -134 42 -75 58
-95 64 -83 16 27 79 258 79 286 0 16 -10 37 -24 50 -22 21 -29 22 -57 12 -44
-15 -108 -14 -157 3 l-41 15 25 -57z"/>
<path d="M1424 2325 c-7 -19 -14 -38 -14 -43 0 -5 -21 -60 -46 -123 l-45 -114
5 -120 c8 -194 38 -265 116 -270 41 -3 48 0 85 39 37 38 123 188 139 243 5 16
-8 47 -52 120 -33 54 -82 144 -111 201 -28 56 -54 102 -57 102 -3 0 -12 -16
-20 -35z"/>
<path d="M1980 2357 c0 -2 9 -30 20 -63 12 -32 32 -99 46 -149 17 -60 35 -100
52 -118 66 -70 198 -147 251 -147 22 0 40 9 58 28 23 25 25 32 20 92 -5 64
-52 211 -82 256 -9 14 -29 25 -52 29 -21 4 -96 22 -167 41 -126 33 -146 38
-146 31z"/>
<path d="M2845 2290 c-3 -5 14 -51 39 -102 55 -116 79 -188 107 -319 38 -180
29 -477 -21 -648 -7 -26 -7 -37 2 -42 7 -5 14 -7 15 -5 2 2 12 44 23 95 57
259 42 551 -41 792 -21 63 -105 239 -114 239 -2 0 -7 -4 -10 -10z"/>
<path d="M328 2223 c-46 -87 -102 -248 -125 -361 -27 -135 -24 -432 6 -572 12
-58 26 -109 31 -113 20 -21 19 20 -2 115 -31 138 -33 446 -5 576 25 114 67
232 115 328 37 73 42 94 22 94 -3 0 -22 -30 -42 -67z"/>
<path d="M1805 2258 c-2 -7 -25 -77 -51 -156 l-46 -143 34 -52 c60 -90 135
-173 193 -213 48 -33 59 -36 75 -26 11 7 26 12 34 12 41 0 45 153 8 292 -16
63 -23 72 -130 183 -68 70 -114 111 -117 103z"/>
<path d="M2390 2265 c0 -4 14 -49 32 -99 28 -78 32 -105 32 -187 1 -59 -4
-102 -11 -111 -15 -17 -97 -21 -143 -7 -19 7 -73 36 -119 66 -46 30 -85 52
-88 50 -2 -3 1 -44 7 -93 6 -48 8 -106 5 -129 -9 -57 -35 -123 -51 -129 -7 -3
-36 2 -64 10 -61 18 -162 108 -241 215 -28 38 -53 69 -54 69 -2 0 -25 -40 -50
-89 -54 -105 -107 -169 -171 -206 l-46 -27 -39 38 c-48 47 -74 114 -90 231 -6
48 -12 89 -14 91 -1 2 -23 -32 -48 -75 -56 -96 -117 -168 -168 -193 -53 -28
-62 -26 -93 19 -42 60 -56 130 -56 279 -1 100 -4 132 -13 129 -211 -91 -291
-110 -355 -85 l-41 16 -25 -72 c-45 -123 -57 -195 -63 -356 -6 -175 7 -271 57
-422 143 -430 519 -743 970 -809 103 -15 326 -6 430 16 111 25 265 88 370 153
112 69 253 199 333 306 179 242 266 572 226 863 -21 160 -72 313 -149 447
l-42 73 -99 7 c-55 4 -106 9 -114 13 -8 3 -15 2 -15 -2z m-1060 -835 c0 -5 -5
-12 -11 -16 -14 -8 -33 11 -25 25 7 11 36 4 36 -9z m780 5 c30 -16 80 -74 80
-93 0 -8 24 -12 69 -12 38 0 76 -3 85 -6 34 -13 13 -23 -56 -26 l-73 -3 -3
-32 c-3 -32 -2 -33 22 -23 70 26 125 -57 78 -118 -16 -21 -20 -22 -31 -8 -10
12 -9 19 4 40 30 45 -4 73 -56 46 -15 -9 -19 -22 -19 -66 0 -47 -3 -55 -17
-52 -12 2 -19 14 -21 36 -3 31 -4 32 -41 26 -44 -7 -74 6 -97 41 -15 23 -15
27 0 49 23 36 51 41 97 17 l40 -21 -3 32 -3 33 -92 3 -93 3 0 -111 c0 -85 -3
-111 -12 -108 -7 3 -14 25 -16 51 -3 42 -6 47 -27 47 -13 0 -30 2 -38 6 -10 3
-16 -4 -20 -24 -8 -40 -54 -60 -97 -42 -31 13 -80 63 -80 82 0 6 18 -6 40 -26
22 -20 48 -36 58 -36 30 0 54 24 50 51 -3 24 -10 26 -62 17 -36 -6 -26 19 14
35 34 13 41 20 38 39 -3 23 -6 24 -72 16 -43 -5 -44 20 -1 28 67 12 130 -39
96 -80 -16 -19 8 -37 49 -38 37 -1 51 15 48 57 -3 26 -8 31 -36 35 -18 3 -33
10 -32 15 0 6 57 11 145 13 93 2 145 6 145 13 0 16 -57 69 -74 69 -9 0 -16 2
-16 4 0 2 -3 11 -6 20 -8 20 -1 20 36 1z m117 -11 c5 -15 -28 -27 -40 -15 -5
5 -6 14 -2 21 8 13 37 9 42 -6z m-920 -44 c8 0 28 8 44 17 37 22 52 7 19 -19
-29 -23 -81 -19 -111 8 -29 26 -23 38 7 15 15 -12 33 -21 41 -21z m-292 20 c4
-6 1 -17 -5 -25 -9 -11 -17 -12 -32 -4 -15 8 -17 13 -7 25 14 16 35 18 44 4z
m655 -85 c11 -13 8 -15 -14 -15 l-26 0 0 -110 c0 -60 -4 -110 -8 -110 -17 0
-32 25 -32 55 0 29 -2 31 -33 27 -51 -6 -85 27 -89 86 l-3 47 -42 3 -43 3 0
-111 c0 -85 -3 -111 -12 -108 -9 3 -15 38 -18 109 l-5 104 -35 0 -35 0 -3
-107 c-2 -89 -5 -106 -17 -101 -12 4 -15 27 -15 109 l0 104 -40 0 -40 0 0 -65
c0 -73 -15 -91 -50 -60 -24 21 -26 45 -5 45 11 0 15 11 15 40 l0 40 -55 0
c-54 0 -55 0 -55 -29 0 -28 -2 -30 -47 -33 -40 -3 -48 -6 -48 -23 0 -18 6 -20
47 -17 38 3 48 0 57 -17 18 -32 13 -50 -19 -69 l-30 -19 25 -23 c14 -13 23
-25 21 -27 -7 -8 -126 80 -126 93 0 18 24 18 40 0 9 -12 18 -13 38 -5 54 21
50 53 -4 43 -28 -5 -40 -2 -60 17 -13 12 -24 33 -24 45 0 20 6 23 47 26 36 2
49 7 51 20 3 14 -7 18 -64 20 -43 2 -69 8 -72 16 -3 9 83 12 406 12 352 0 411
-2 422 -15z m-347 -356 c43 -11 77 -53 59 -71 -9 -9 -18 -5 -36 15 -25 27 -72
36 -111 21 -38 -15 -57 -97 -34 -147 28 -61 159 -61 159 0 0 20 -5 23 -40 23
-29 0 -40 4 -40 15 0 12 13 15 55 15 l55 0 0 -50 c0 -45 -3 -51 -30 -65 -16
-8 -52 -15 -81 -15 -44 0 -55 4 -84 33 -43 43 -53 93 -31 152 17 43 43 68 81
78 32 8 38 7 78 -4z m282 -4 c40 -20 63 -62 38 -72 -9 -4 -19 -1 -21 5 -14 44
-94 58 -126 23 -20 -22 -31 -80 -22 -116 17 -69 98 -89 138 -35 12 17 28 30
35 30 22 0 14 -30 -16 -61 -40 -39 -114 -42 -154 -5 -71 66 -49 210 36 235 46
13 55 13 92 -4z m-505 -125 c0 -106 -3 -130 -14 -130 -11 0 -15 19 -18 83 -5
124 1 177 18 177 11 0 14 -23 14 -130z m765 13 c26 -65 49 -124 52 -130 3 -8
-3 -13 -14 -13 -14 0 -25 12 -36 40 -15 40 -15 40 -71 40 l-55 0 -12 -40 c-9
-29 -18 -40 -32 -40 -11 0 -17 5 -15 13 82 222 93 247 114 247 19 0 29 -18 69
-117z m274 91 c28 -36 26 -61 -7 -93 l-29 -26 38 -55 c36 -52 37 -55 17 -58
-12 -2 -25 2 -29 10 -31 55 -71 97 -98 103 -44 9 -51 1 -51 -61 0 -41 -4 -54
-15 -54 -13 0 -15 21 -15 130 l0 130 84 0 c79 0 86 -2 105 -26z"/>
<path d="M2067 1223 c-15 -15 -6 -43 16 -48 25 -7 77 9 77 23 0 25 -73 45 -93
25z"/>
<path d="M1502 1243 c3 -51 6 -58 25 -61 44 -6 63 14 63 68 l0 50 -45 0 -46 0
3 -57z"/>
<path d="M1777 874 c-23 -64 -23 -64 18 -64 41 0 44 14 17 74 l-17 38 -18 -48z"/>
<path d="M1987 924 c-4 -4 -7 -23 -7 -41 l0 -34 61 3 c46 2 65 8 73 21 20 31
-4 52 -65 55 -30 2 -58 0 -62 -4z"/>
<path d="M2 743 l-2 -743 713 1 712 1 -100 18 c-657 123 -1173 636 -1294 1287
-11 60 -22 124 -24 143 -2 19 -5 -299 -5 -707z"/>
<path d="M3206 1363 c-16 -138 -75 -323 -152 -476 -234 -466 -663 -783 -1184
-872 -65 -11 22 -13 638 -14 l712 -1 0 710 c0 391 -2 710 -4 710 -2 0 -6 -26
-10 -57z"/>
<path d="M2894 1025 c11 -8 23 -15 28 -15 4 0 8 -4 8 -10 0 -5 -16 -10 -35
-10 -48 0 -45 -22 4 -45 48 -21 79 -15 36 7 l-30 16 38 7 c20 4 40 11 42 16 7
10 -67 49 -92 49 -17 -1 -17 -2 1 -15z"/>
<path d="M263 973 c-25 -5 -32 -23 -8 -23 20 0 37 -34 24 -47 -7 -7 -7 -13 -1
-16 13 -9 86 69 78 82 -7 11 -49 13 -93 4z m67 -17 c0 -2 -7 -9 -15 -16 -12
-10 -15 -10 -15 4 0 9 7 16 15 16 8 0 15 -2 15 -4z"/>
<path d="M2827 912 c-22 -24 -21 -55 1 -75 22 -20 63 -22 80 -5 20 20 14 65
-10 82 -29 21 -51 20 -71 -2z m71 -46 c-2 -15 -10 -21 -27 -21 -31 0 -50 28
-32 49 18 22 63 0 59 -28z"/>
<path d="M374 902 c5 -14 -3 -24 -29 -38 -19 -10 -35 -25 -35 -32 0 -10 11 -7
41 10 34 19 42 20 49 8 18 -29 20 -2 4 34 -18 37 -40 50 -30 18z"/>
<path d="M2770 821 c0 -10 75 -61 90 -61 21 0 8 16 -34 43 -46 29 -56 32 -56
18z"/>
<path d="M393 808 c-40 -19 -42 -77 -2 -98 14 -8 27 -6 49 5 38 20 42 66 8 89
-26 18 -26 18 -55 4z m57 -36 c0 -23 -19 -42 -42 -42 -24 0 -34 26 -18 45 18
22 60 19 60 -3z"/>
<path d="M2733 767 c-28 -40 -29 -51 -5 -36 15 10 25 8 50 -11 43 -32 55 -16
14 17 -24 18 -31 30 -27 44 10 30 -8 22 -32 -14z"/>
<path d="M463 691 c-18 -15 -33 -33 -33 -41 0 -10 4 -10 18 2 34 30 46 31 24
3 -26 -33 -16 -53 18 -35 12 6 24 9 27 7 2 -3 -5 -10 -16 -17 -21 -11 -29 -30
-13 -30 5 0 26 15 48 34 29 26 36 37 28 46 -9 9 -19 8 -44 -5 l-33 -17 21 34
c34 55 8 65 -45 19z"/>
<path d="M2670 680 c0 -6 9 -28 20 -50 23 -45 46 -65 38 -32 -6 21 21 56 38
50 5 -2 11 1 14 6 6 10 -53 34 -87 35 -13 1 -23 -4 -23 -9z m54 -31 c-6 -11
-24 -2 -24 11 0 5 7 7 15 4 8 -4 12 -10 9 -15z"/>
<path d="M2617 623 c-4 -3 3 -17 15 -30 l22 -24 -42 7 c-51 8 -53 -2 -7 -46
37 -36 61 -35 29 1 l-19 22 37 -7 c20 -4 39 -3 42 2 7 11 -68 85 -77 75z"/>
<path d="M573 594 c-3 -8 -1 -26 5 -39 6 -12 8 -25 5 -28 -10 -11 -33 6 -33
24 0 10 -4 19 -10 19 -18 0 -11 -36 11 -56 37 -33 67 6 44 59 -4 11 -3 17 5
17 6 0 14 -9 17 -20 7 -25 23 -26 23 -2 0 38 -54 59 -67 26z"/>
<path d="M670 479 c-37 -46 -33 -65 6 -28 32 30 47 56 35 63 -4 3 -23 -13 -41
-35z"/>
<path d="M2475 496 l-29 -24 28 -41 c33 -47 44 -50 74 -18 29 31 28 41 -3 21
-35 -23 -52 -8 -24 22 26 28 19 31 -16 8 -30 -19 -35 -2 -8 28 25 28 11 30
-22 4z"/>
<path d="M711 445 c-17 -24 -27 -46 -22 -50 6 -3 15 4 21 15 16 30 26 24 22
-14 -6 -50 12 -52 47 -5 34 47 32 73 -2 33 l-23 -26 4 40 c5 56 -10 58 -47 7z"/>
<path d="M2413 428 c4 -12 1 -28 -5 -35 -9 -11 -14 -10 -29 3 -11 10 -22 15
-25 12 -7 -8 46 -88 57 -88 11 0 11 11 0 29 -7 10 -4 19 7 27 14 11 20 9 33
-8 28 -36 29 -4 1 40 -29 45 -48 55 -39 20z"/>
<path d="M866 391 c-3 -5 1 -12 10 -15 14 -5 13 -10 -5 -40 -12 -18 -21 -38
-21 -45 0 -22 17 -10 33 25 14 28 22 35 38 31 11 -3 19 -1 17 4 -6 17 -66 50
-72 40z"/>
<path d="M2293 372 c-32 -15 -47 -40 -18 -28 10 3 22 -8 37 -34 13 -22 26 -40
31 -40 13 0 7 24 -13 55 -14 22 -16 32 -8 42 17 21 6 22 -29 5z"/>
<path d="M938 295 c-12 -24 -18 -48 -14 -52 5 -5 10 -3 13 2 9 26 21 35 37 29
13 -5 16 -13 11 -35 -10 -44 8 -35 33 17 23 47 21 74 -3 41 -18 -25 -48 -11
-41 19 10 40 -13 27 -36 -21z"/>
<path d="M2157 304 c-27 -15 -27 -15 -11 -52 9 -20 18 -43 21 -49 8 -21 24 -3
17 19 -4 13 1 25 13 34 17 14 16 15 -9 9 -33 -7 -40 20 -8 30 11 3 20 11 20
16 0 12 -10 11 -43 -7z"/>
<path d="M1051 253 c-7 -21 -14 -43 -17 -50 -3 -6 11 -16 31 -23 43 -14 59 -6
21 11 -14 7 -26 16 -26 20 0 15 20 20 40 9 27 -15 25 4 -2 23 -29 19 -19 31
16 18 17 -7 26 -7 26 -1 0 11 -42 30 -64 30 -7 0 -18 -17 -25 -37z"/>
<path d="M2037 252 c-36 -39 -14 -92 39 -92 27 0 37 5 46 26 26 56 -45 110
-85 66z m63 -21 c13 -25 3 -51 -20 -51 -25 0 -43 25 -35 50 8 25 41 26 55 1z"/>
<path d="M1262 218 c-19 -19 -14 -37 13 -50 14 -6 25 -17 25 -25 0 -18 -29
-17 -36 2 -8 19 -24 19 -24 0 0 -19 36 -38 60 -30 30 9 26 53 -5 67 -14 6 -25
15 -25 20 0 12 24 10 38 -4 6 -6 15 -8 19 -4 9 8 -24 36 -42 36 -6 0 -16 -5
-23 -12z"/>
<path d="M1900 223 c-38 -7 -42 -16 -29 -67 12 -47 20 -52 67 -40 34 9 27 27
-8 19 -39 -9 -41 17 -2 32 l27 11 -32 1 c-39 1 -44 18 -8 27 22 5 38 26 18 23
-5 -1 -19 -4 -33 -6z"/>
<path d="M1367 203 c-2 -4 -7 -29 -11 -54 -7 -46 -7 -46 25 -53 42 -8 49 -8
49 4 0 6 -11 10 -25 10 -16 0 -25 6 -25 15 0 9 9 15 25 15 31 0 33 17 3 22
-13 2 -21 8 -18 13 3 6 15 9 28 7 12 -1 22 2 22 8 0 5 -6 10 -12 10 -7 0 -23
3 -34 6 -12 3 -24 2 -27 -3z"/>
<path d="M1475 191 c-10 -9 -5 -101 5 -101 6 0 10 9 10 20 0 27 10 25 36 -7
12 -16 26 -25 30 -21 4 4 1 14 -5 22 -9 11 -9 19 0 34 18 29 5 49 -36 54 -19
2 -38 2 -40 -1z m65 -32 c0 -5 -11 -9 -25 -9 -24 0 -32 10 -19 22 8 8 44 -3
44 -13z"/>
<path d="M1761 186 c-7 -8 -11 -30 -9 -48 4 -42 48 -62 75 -35 20 20 10 35
-12 17 -22 -19 -45 -5 -45 29 0 29 24 49 35 31 9 -15 25 -12 25 5 0 20 -53 20
-69 1z"/>
<path d="M1585 170 c18 -56 37 -91 47 -88 6 2 19 28 29 56 14 41 15 52 5 52
-8 0 -17 -16 -20 -35 -9 -44 -20 -45 -32 -3 -5 17 -15 33 -23 36 -10 3 -11 -2
-6 -18z"/>
<path d="M1700 141 c0 -28 5 -53 10 -56 6 -4 10 15 10 49 0 31 -4 56 -10 56
-5 0 -10 -22 -10 -49z"/>
</g>
</svg>
