<?xml version="1.0" encoding="UTF-8"?>
<!DOCTYPE svg PUBLIC "-//W3C//DTD SVG 1.1//EN" "http://www.w3.org/Graphics/SVG/1.1/DTD/svg11.dtd">
<svg xmlns="http://www.w3.org/2000/svg" version="1.1" width="900px" height="900px" style="shape-rendering:geometricPrecision; text-rendering:geometricPrecision; image-rendering:optimizeQuality; fill-rule:evenodd; clip-rule:evenodd" xmlns:xlink="http://www.w3.org/1999/xlink">
<g><path style="opacity:1" fill="#4f6584" d="M -0.5,-0.5 C 299.5,-0.5 599.5,-0.5 899.5,-0.5C 899.5,299.5 899.5,599.5 899.5,899.5C 899.167,899.5 898.833,899.5 898.5,899.5C 898.5,599.833 898.5,300.167 898.5,0.5C 599,0.166853 299.666,0.500186 0.5,1.5C 0.5,1.83333 0.5,2.16667 0.5,2.5C 0.5,301.5 0.5,600.5 0.5,899.5C 0.166667,899.5 -0.166667,899.5 -0.5,899.5C -0.5,599.5 -0.5,299.5 -0.5,-0.5 Z"/></g>
<g><path style="opacity:1" fill="#011837" d="M 0.5,2.5 C 0.5,2.16667 0.5,1.83333 0.5,1.5C 299.667,1.16685 598.667,1.50019 897.5,2.5C 599.5,2.5 301.5,2.5 3.5,2.5C 2.66676,300.333 2.16676,598.333 2,896.5C 1.83324,598.333 1.33324,300.333 0.5,2.5 Z"/></g>
<g><path style="opacity:1" fill="#102341" d="M 0.5,1.5 C 299.666,0.500186 599,0.166853 898.5,0.5C 898.5,300.167 898.5,599.833 898.5,899.5C 599.167,899.5 299.833,899.5 0.5,899.5C 0.5,600.5 0.5,301.5 0.5,2.5C 1.33324,300.333 1.83324,598.333 2,896.5C 2.16676,598.333 2.66676,300.333 3.5,2.5C 3.5,300.5 3.5,598.5 3.5,896.5C 7.5,896.5 11.5,896.5 15.5,896.5C 309.206,896.833 602.873,896.499 896.5,895.5C 897.5,599.167 897.833,302.834 897.5,6.5C 897.5,5.16667 897.5,3.83333 897.5,2.5C 598.667,1.50019 299.667,1.16685 0.5,1.5 Z"/></g>
<g><path style="opacity:1" fill="#07203f" d="M 5.5,15.5 C 8.83333,15.5 12.1667,15.5 15.5,15.5C 15.5,307.5 15.5,599.5 15.5,891.5C 13.7175,892.114 12.3841,893.28 11.5,895C 10.2068,895.49 8.87344,895.657 7.5,895.5C 7.30678,891.551 6.80678,891.551 6,895.5C 5.5,602.167 5.33333,308.834 5.5,15.5 Z"/></g>
<g><path style="opacity:1" fill="#091d3e" d="M 897.5,6.5 C 897.833,302.834 897.5,599.167 896.5,895.5C 602.873,896.499 309.206,896.833 15.5,896.5C 15.5,894.833 15.5,893.167 15.5,891.5C 15.5,599.5 15.5,307.5 15.5,15.5C 12.1667,15.5 8.83333,15.5 5.5,15.5C 301.43,14.5001 598.097,14.1667 895.5,14.5C 895.294,11.5049 895.96,8.83825 897.5,6.5 Z"/></g>
<g><path style="opacity:1" fill="#12213a" d="M 146.5,645.5 C 150.683,644.189 155.016,644.189 159.5,645.5C 162.917,647.926 164.25,651.259 163.5,655.5C 162.5,655.5 161.5,655.5 160.5,655.5C 160.5,685.167 160.5,714.833 160.5,744.5C 172.171,744.667 183.838,744.5 195.5,744C 196.337,742.989 196.67,741.822 196.5,740.5C 198.124,740.36 199.29,741.027 200,742.5C 201.813,740.528 202.98,740.528 203.5,742.5C 202.238,745.271 200.738,747.938 199,750.5C 198.547,753.84 198.047,757.174 197.5,760.5C 198.068,762.204 198.068,763.704 197.5,765C 198.88,766.324 199.214,767.657 198.5,769C 187.402,770.134 176.235,770.634 165,770.5C 154.833,770.333 144.667,770.167 134.5,770C 133.376,769.751 132.376,769.251 131.5,768.5C 131.64,730.926 131.473,693.259 131,655.5C 130.713,653.109 130.213,650.776 129.5,648.5C 134.571,644.882 139.905,644.549 145.5,647.5C 148.486,646.943 148.82,646.277 146.5,645.5 Z"/></g>
<g><path style="opacity:1" fill="#6e747f" d="M 426.5,767.5 C 433.471,768.29 440.471,768.623 447.5,768.5C 444.686,769.165 441.686,769.498 438.5,769.5C 434.203,769.722 430.203,769.055 426.5,767.5 Z"/></g>
<g><path style="opacity:1" fill="#656d78" d="M 234.5,767.5 C 243.5,768.833 252.5,768.833 261.5,767.5C 261.082,768.222 260.416,768.722 259.5,769C 252.167,769.667 244.833,769.667 237.5,769C 236.263,768.768 235.263,768.268 234.5,767.5 Z"/></g>
<g><path style="opacity:1" fill="#8a8f93" d="M 669.5,763.5 C 670.434,764.568 670.768,765.901 670.5,767.5C 661.833,767.5 653.167,767.5 644.5,767.5C 644.5,767.167 644.5,766.833 644.5,766.5C 652.833,766.5 661.167,766.5 669.5,766.5C 669.5,765.5 669.5,764.5 669.5,763.5 Z"/></g>
<g><path style="opacity:1" fill="#7c818a" d="M 133.5,648.5 C 133.5,648.833 133.5,649.167 133.5,649.5C 133.5,688.5 133.5,727.5 133.5,766.5C 153.833,766.5 174.167,766.5 194.5,766.5C 194.5,760.167 194.5,753.833 194.5,747.5C 195.491,753.979 195.824,760.646 195.5,767.5C 174.5,767.5 153.5,767.5 132.5,767.5C 132.168,727.663 132.501,687.996 133.5,648.5 Z"/></g>
<g><path style="opacity:1" fill="#1a273c" d="M 501.5,649.5 C 501.5,688.833 501.5,728.167 501.5,767.5C 521.833,767.5 542.167,767.5 562.5,767.5C 562.5,760.833 562.5,754.167 562.5,747.5C 550.5,747.5 538.5,747.5 526.5,747.5C 526.5,747.167 526.5,746.833 526.5,746.5C 538.171,746.667 549.838,746.5 561.5,746C 550.172,745.5 538.838,745.333 527.5,745.5C 527.5,744.167 527.5,742.833 527.5,741.5C 528.688,740.952 529.855,740.619 531,740.5C 531.772,741.849 532.939,742.682 534.5,743C 545.197,744.385 555.864,744.885 566.5,744.5C 566.023,745.478 565.357,746.311 564.5,747C 565.658,748.009 566.325,749.342 566.5,751C 565.797,753.829 565.63,756.662 566,759.5C 567.11,761.037 568.61,761.703 570.5,761.5C 570.946,758.007 572.612,756.673 575.5,757.5C 574.213,760.698 573.547,764.031 573.5,767.5C 579.5,767.5 585.5,767.5 591.5,767.5C 589.257,768.812 586.59,769.478 583.5,769.5C 578.703,769.577 574.036,768.91 569.5,767.5C 569.5,766.5 569.5,765.5 569.5,764.5C 568.167,764.5 566.833,764.5 565.5,764.5C 565.714,766.144 565.38,767.644 564.5,769C 546.85,770.095 529.183,770.595 511.5,770.5C 511.5,771.833 511.5,773.167 511.5,774.5C 506.895,776.413 502.895,775.579 499.5,772C 499.355,730.956 499.522,689.789 500,648.5C 500.383,649.056 500.883,649.389 501.5,649.5 Z"/></g>
<g><path style="opacity:1" fill="#1f2b3f" d="M 317.5,657.5 C 312.313,663.875 309.146,671.208 308,679.5C 307.087,699.867 307.42,720.2 309,740.5C 311.803,754.121 319.636,763.121 332.5,767.5C 326.721,768.292 321.554,766.959 317,763.5C 316.667,763.833 316.333,764.167 316,764.5C 314.848,761.56 313.848,758.56 313,755.5C 311.667,754.833 310.667,753.833 310,752.5C 308.333,746.924 307.166,741.257 306.5,735.5C 305.448,735.649 304.448,735.483 303.5,735C 304.053,718.637 304.553,702.137 305,685.5C 305.045,682.666 305.879,680.166 307.5,678C 306.424,676.274 306.257,674.441 307,672.5C 307.333,673.833 307.667,675.167 308,676.5C 308.373,674.302 308.873,672.135 309.5,670C 308.03,666.321 308.364,662.821 310.5,659.5C 311.167,659.833 311.833,660.167 312.5,660.5C 313.48,659.019 314.647,657.685 316,656.5C 316.383,657.056 316.883,657.389 317.5,657.5 Z"/></g>
<g><path style="opacity:1" fill="#162235" d="M 752.5,762.5 C 759.552,758.243 763.719,751.91 765,743.5C 766.918,732.386 765.084,722.053 759.5,712.5C 760.496,712.586 761.329,712.252 762,711.5C 762.442,713.679 763.442,714.345 765,713.5C 767.596,724.974 768.096,736.641 766.5,748.5C 765.451,751.145 764.117,753.645 762.5,756C 762.735,756.873 763.069,757.707 763.5,758.5C 760.381,761.869 756.715,763.203 752.5,762.5 Z"/></g>
<g><path style="opacity:1" fill="#152337" d="M 644.5,767.5 C 653.167,767.5 661.833,767.5 670.5,767.5C 670.768,765.901 670.434,764.568 669.5,763.5C 667.043,754.552 664.709,745.552 662.5,736.5C 663.787,735.232 664.787,735.565 665.5,737.5C 666.768,747.089 668.768,755.756 671.5,763.5C 672.5,763.5 673.5,763.5 674.5,763.5C 674.5,764.833 674.5,766.167 674.5,767.5C 664.439,769.826 654.439,769.826 644.5,767.5 Z"/></g>
<g><path style="opacity:1" fill="#162338" d="M 637.5,741.5 C 639.99,749.794 642.323,758.127 644.5,766.5C 644.5,766.833 644.5,767.167 644.5,767.5C 642.386,766.093 640.886,764.093 640,761.5C 639.502,758.183 639.335,754.85 639.5,751.5C 638.167,751.5 636.833,751.5 635.5,751.5C 634.947,749.061 634.947,746.727 635.5,744.5C 634.667,744.167 633.833,743.833 633,743.5C 624.632,743.292 616.132,743.625 607.5,744.5C 606.758,745.287 605.925,745.953 605,746.5C 604.088,752.323 602.588,757.99 600.5,763.5C 601.246,764.736 601.579,766.07 601.5,767.5C 600.167,767.5 598.833,767.5 597.5,767.5C 599.206,759.341 601.206,751.341 603.5,743.5C 614.58,741.556 625.913,740.889 637.5,741.5 Z"/></g>
<g><path style="opacity:1" fill="#131e33" d="M 411.5,655.5 C 404.364,663.785 400.53,673.452 400,684.5C 399.223,701.855 399.556,719.189 401,736.5C 401.452,739.877 402.118,743.211 403,746.5C 405.038,749.243 406.538,752.243 407.5,755.5C 406.279,754.972 405.113,754.305 404,753.5C 400.787,745.083 398.287,736.75 396.5,728.5C 397.305,712.192 397.805,695.858 398,679.5C 399.126,675.251 399.792,670.918 400,666.5C 402.48,662.864 405.313,659.53 408.5,656.5C 409.325,655.614 410.325,655.281 411.5,655.5 Z"/></g>
<g><path style="opacity:1" fill="#0a1f3b" d="M 684.5,756.5 C 684.185,760.371 684.518,764.038 685.5,767.5C 702.675,767.83 719.675,767.497 736.5,766.5C 742.008,765.79 747.341,764.456 752.5,762.5C 751.699,764.042 751.366,765.708 751.5,767.5C 750.127,767.343 748.793,767.51 747.5,768C 747.833,768.333 748.167,768.667 748.5,769C 745.728,770.838 742.894,771.338 740,770.5C 738.289,770.439 736.956,771.106 736,772.5C 719.025,770.481 702.025,770.148 685,771.5C 684.085,770.672 683.419,769.672 683,768.5C 681.951,769.517 680.784,769.684 679.5,769C 679.833,768.667 680.167,768.333 680.5,768C 679.257,766.13 678.59,763.964 678.5,761.5C 677.729,726.167 678.062,690.834 679.5,655.5C 680.15,688.175 680.983,720.841 682,753.5C 682.333,755.5 682.667,757.5 683,759.5C 683.232,758.263 683.732,757.263 684.5,756.5 Z"/></g>
<g><path style="opacity:1" fill="#172439" d="M 759.5,712.5 C 755.013,709.259 750.013,707.092 744.5,706C 754.434,703.067 760.6,696.567 763,686.5C 767.333,664.446 758.5,652.113 736.5,649.5C 736.5,649.167 736.5,648.833 736.5,648.5C 742.792,647.602 749.125,647.602 755.5,648.5C 756.167,650.833 756.833,653.167 757.5,655.5C 758.5,655.5 759.5,655.5 760.5,655.5C 760.88,658.745 762.047,661.745 764,664.5C 764.565,672.582 765.731,680.415 767.5,688C 764.896,693.216 761.563,697.882 757.5,702C 757.566,705.776 758.233,709.276 759.5,712.5 Z"/></g>
<g><path style="opacity:1" fill="#162339" d="M 357.5,674.5 C 357.5,678.5 357.5,682.5 357.5,686.5C 365.833,686.5 374.167,686.5 382.5,686.5C 373.295,687.818 363.961,687.818 354.5,686.5C 353.522,686.977 352.689,687.643 352,688.5C 351.501,684.848 351.335,681.182 351.5,677.5C 352.5,677.5 353.5,677.5 354.5,677.5C 354.5,676.167 354.5,674.833 354.5,673.5C 351.822,672.999 349.822,671.499 348.5,669C 340.908,666.992 337.908,669.658 339.5,677C 338.884,679.179 337.717,681.012 336,682.5C 335.167,701.176 335.334,719.842 336.5,738.5C 337.736,739.246 339.07,739.579 340.5,739.5C 340.337,741.857 340.503,744.19 341,746.5C 341.914,745.346 342.747,745.513 343.5,747C 348.345,748.163 352.179,746.663 355,742.5C 355.071,739.769 354.904,737.269 354.5,735C 356.167,731.375 357.834,727.708 359.5,724C 367.463,724.322 375.463,724.488 383.5,724.5C 383.215,722.712 383.548,721.045 384.5,719.5C 385.325,723.122 385.825,726.789 386,730.5C 386.233,732.78 387.066,734.78 388.5,736.5C 387.907,738.382 387.24,740.215 386.5,742C 386.501,743.399 386.835,744.899 387.5,746.5C 386.051,748.611 385.051,750.944 384.5,753.5C 381.751,755.86 379.084,758.36 376.5,761C 378.801,763.003 378.801,764.837 376.5,766.5C 373.572,767.484 370.572,767.817 367.5,767.5C 367.5,768.5 367.5,769.5 367.5,770.5C 358.356,771.919 349.023,771.752 339.5,770C 338.944,769.617 338.611,769.117 338.5,768.5C 369.726,772.606 384.726,758.94 383.5,727.5C 375.35,726.507 367.017,726.174 358.5,726.5C 358.5,727.5 358.5,728.5 358.5,729.5C 359.408,736.381 358.074,742.714 354.5,748.5C 349.533,752.399 344.533,752.399 339.5,748.5C 336.6,744.639 334.767,740.305 334,735.5C 332.059,715.818 332.059,696.152 334,676.5C 335.799,671.038 339.299,667.204 344.5,665C 351.752,664.076 356.085,667.243 357.5,674.5 Z"/></g>
<g><path style="opacity:1" fill="#6e7888" d="M 383.5,727.5 C 374.897,726.912 366.564,727.578 358.5,729.5C 358.5,728.5 358.5,727.5 358.5,726.5C 367.017,726.174 375.35,726.507 383.5,727.5 Z"/></g>
<g><path style="opacity:1" fill="#515967" d="M 287.5,679.5 C 288.29,680.609 288.79,681.942 289,683.5C 289.667,699.5 289.667,715.5 289,731.5C 288.814,734.036 288.314,736.369 287.5,738.5C 288.804,718.83 288.804,699.163 287.5,679.5 Z"/></g>
<g><path style="opacity:1" fill="#d5dce1" d="M 595.5,686.5 C 595.115,691.871 595.115,697.205 595.5,702.5C 593.944,704.701 592.777,704.701 592,702.5C 592.155,704.811 592.155,707.144 592,709.5C 591.28,711.056 590.113,712.056 588.5,712.5C 589.92,703.48 592.253,694.813 595.5,686.5 Z"/></g>
<g><path style="opacity:1" fill="#121f36" d="M 644.5,670.5 C 642.541,663.607 640.541,656.607 638.5,649.5C 627.52,648.501 616.52,648.168 605.5,648.5C 601.852,661.094 598.518,673.761 595.5,686.5C 592.253,694.813 589.92,703.48 588.5,712.5C 585.915,719.76 583.582,727.093 581.5,734.5C 581.461,733.417 581.127,732.417 580.5,731.5C 583.09,726.844 583.09,722.177 580.5,717.5C 580.667,716.833 580.833,716.167 581,715.5C 582,716.833 583,716.833 584,715.5C 586.311,708.374 587.811,701.041 588.5,693.5C 589.5,693.5 590.5,693.5 591.5,693.5C 592.613,687.849 593.779,682.182 595,676.5C 598.098,669.882 599.598,662.882 599.5,655.5C 600.5,655.5 601.5,655.5 602.5,655.5C 603.045,652.083 604.378,649.083 606.5,646.5C 617.697,647.825 628.863,647.825 640,646.5C 640.605,648.481 641.605,648.815 643,647.5C 643.49,648.793 643.657,650.127 643.5,651.5C 644.675,651.281 645.675,651.614 646.5,652.5C 644.844,657.978 644.177,663.978 644.5,670.5 Z"/></g>
<g><path style="opacity:1" fill="#0d1f3b" d="M 479.5,739.5 C 482.286,717.819 482.119,696.152 479,674.5C 476.411,660.576 468.245,651.742 454.5,648C 444.423,645.865 434.423,646.032 424.5,648.5C 424.577,647.25 425.244,646.417 426.5,646C 435.351,645.731 444.184,645.231 453,644.5C 455.993,645.129 458.827,646.296 461.5,648C 460.833,648.333 460.167,648.667 459.5,649C 461.698,649.373 463.865,649.873 466,650.5C 467.654,649.347 469.154,648.013 470.5,646.5C 473.447,647.781 475.781,649.781 477.5,652.5C 478.086,652.291 478.586,651.957 479,651.5C 479.333,658.167 479.667,664.833 480,671.5C 482.004,674.475 483.004,677.808 483,681.5C 483.5,694.162 483.667,706.829 483.5,719.5C 484.552,719.649 485.552,719.483 486.5,719C 486.359,707.942 486.026,697.275 485.5,687C 486.312,680.915 486.812,674.748 487,668.5C 487.249,669.624 487.749,670.624 488.5,671.5C 489.121,682.078 489.787,692.744 490.5,703.5C 490.492,714.217 489.825,724.884 488.5,735.5C 486.058,735.881 485.391,735.214 486.5,733.5C 485.811,731.556 485.311,729.556 485,727.5C 483.192,730.353 483.025,733.353 484.5,736.5C 483.913,739.806 482.247,740.806 479.5,739.5 Z"/></g>
<g><path style="opacity:1" fill="#9fa8b2" d="M 381.5,672.5 C 382.485,676.634 382.818,680.968 382.5,685.5C 382.5,685.833 382.5,686.167 382.5,686.5C 374.167,686.5 365.833,686.5 357.5,686.5C 357.5,682.5 357.5,678.5 357.5,674.5C 358.482,677.962 358.815,681.629 358.5,685.5C 366.167,685.5 373.833,685.5 381.5,685.5C 381.5,681.167 381.5,676.833 381.5,672.5 Z"/></g>
<g><path style="opacity:1" fill="#a2a9b2" d="M 133.5,649.5 C 133.5,649.167 133.5,648.833 133.5,648.5C 141.833,648.5 150.167,648.5 158.5,648.5C 158.5,681.167 158.5,713.833 158.5,746.5C 158.5,746.833 158.5,747.167 158.5,747.5C 157.502,715.004 157.168,682.338 157.5,649.5C 149.5,649.5 141.5,649.5 133.5,649.5 Z"/></g>
<g><path style="opacity:1" fill="#122036" d="M 276.5,760.5 C 282.837,754.43 286.504,747.097 287.5,738.5C 288.314,736.369 288.814,734.036 289,731.5C 289.667,715.5 289.667,699.5 289,683.5C 288.79,681.942 288.29,680.609 287.5,679.5C 285.195,660.528 274.528,649.862 255.5,647.5C 255.5,647.167 255.5,646.833 255.5,646.5C 260.378,645.252 265.045,645.919 269.5,648.5C 271.214,647.391 271.881,648.058 271.5,650.5C 273.167,650.5 274.833,650.5 276.5,650.5C 276.239,654.044 277.905,655.878 281.5,656C 281.167,656.333 280.833,656.667 280.5,657C 281.667,658.833 282.833,660.667 284,662.5C 286.512,665.972 289.012,668.805 291.5,671C 291.043,671.414 290.709,671.914 290.5,672.5C 291.122,675.37 291.789,678.204 292.5,681C 291.073,700.747 290.24,720.58 290,740.5C 288.374,743.998 287.207,747.665 286.5,751.5C 284.86,754.624 282.86,757.458 280.5,760C 280.833,760.333 281.167,760.667 281.5,761C 279.803,761.384 278.137,761.218 276.5,760.5 Z"/></g>
<g><path style="opacity:1" fill="#a9b0b9" d="M 736.5,648.5 C 736.5,648.833 736.5,649.167 736.5,649.5C 719.833,649.5 703.167,649.5 686.5,649.5C 686.5,688.5 686.5,727.5 686.5,766.5C 703.167,766.5 719.833,766.5 736.5,766.5C 719.675,767.497 702.675,767.83 685.5,767.5C 685.5,728.167 685.5,688.833 685.5,649.5C 702.325,648.503 719.325,648.17 736.5,648.5 Z"/></g>
<g><path style="opacity:1" fill="#1b273c" d="M 685.5,649.5 C 685.5,688.833 685.5,728.167 685.5,767.5C 684.518,764.038 684.185,760.371 684.5,756.5C 684.813,721.816 684.48,687.149 683.5,652.5C 683.64,650.97 684.307,649.97 685.5,649.5 Z"/></g>
<g><path style="opacity:1" fill="#000814" d="M 158.5,648.5 C 159.498,680.662 159.832,712.996 159.5,745.5C 170.838,745.333 182.172,745.5 193.5,746C 181.838,746.5 170.171,746.667 158.5,746.5C 158.5,713.833 158.5,681.167 158.5,648.5 Z"/></g>
<g><path style="opacity:1" fill="#131f34" d="M 255.5,646.5 C 247.921,646.094 240.588,646.761 233.5,648.5C 222.784,651.374 215.284,658.041 211,668.5C 209.506,673.224 208.339,677.891 207.5,682.5C 206.393,671.904 209.393,662.738 216.5,655C 215.446,653.612 215.28,652.112 216,650.5C 216.308,651.308 216.808,651.975 217.5,652.5C 219.237,649.65 221.071,649.316 223,651.5C 223.49,650.207 223.657,648.873 223.5,647.5C 229.808,645.552 236.308,644.552 243,644.5C 247.557,644.509 251.724,645.175 255.5,646.5 Z"/></g>
<g><path style="opacity:1" fill="#000516" d="M 526.5,648.5 C 527.498,679.329 527.831,710.329 527.5,741.5C 527.5,742.833 527.5,744.167 527.5,745.5C 538.838,745.333 550.172,745.5 561.5,746C 549.838,746.5 538.171,746.667 526.5,746.5C 526.5,713.833 526.5,681.167 526.5,648.5 Z"/></g>
<g><path style="opacity:1" fill="#9fa4af" d="M 501.5,649.5 C 509.65,648.507 517.983,648.174 526.5,648.5C 526.5,681.167 526.5,713.833 526.5,746.5C 526.5,746.833 526.5,747.167 526.5,747.5C 525.502,715.004 525.168,682.338 525.5,649.5C 517.5,649.5 509.5,649.5 501.5,649.5 Z"/></g>
<g><path style="opacity:1" fill="#f9fbfa" d="M 736.5,649.5 C 758.5,652.113 767.333,664.446 763,686.5C 760.6,696.567 754.434,703.067 744.5,706C 750.013,707.092 755.013,709.259 759.5,712.5C 765.084,722.053 766.918,732.386 765,743.5C 763.719,751.91 759.552,758.243 752.5,762.5C 747.341,764.456 742.008,765.79 736.5,766.5C 719.833,766.5 703.167,766.5 686.5,766.5C 686.5,727.5 686.5,688.5 686.5,649.5C 703.167,649.5 719.833,649.5 736.5,649.5 Z"/></g>
<g><path style="opacity:1" fill="#273241" d="M 731.5,716.5 C 724.833,716.5 718.167,716.5 711.5,716.5C 711.5,726.833 711.5,737.167 711.5,747.5C 717.868,747.83 724.202,747.496 730.5,746.5C 731.714,744.246 733.381,743.913 735.5,745.5C 734.4,746.558 733.066,747.392 731.5,748C 724.508,748.5 717.508,748.666 710.5,748.5C 710.5,737.5 710.5,726.5 710.5,715.5C 717.687,715.175 724.687,715.509 731.5,716.5 Z"/></g>
<g><path style="opacity:1" fill="#0e1d35" d="M 731.5,716.5 C 735.801,717.635 738.635,720.302 740,724.5C 741.011,731.036 740.344,737.369 738,743.5C 737.292,744.381 736.458,745.047 735.5,745.5C 733.381,743.913 731.714,744.246 730.5,746.5C 724.202,747.496 717.868,747.83 711.5,747.5C 711.5,737.167 711.5,726.833 711.5,716.5C 718.167,716.5 724.833,716.5 731.5,716.5 Z"/></g>
<g><path style="opacity:1" fill="#081d3f" d="M 715.5,717.5 C 721.62,717.026 727.453,718.026 733,720.5C 733.273,722.101 733.773,723.601 734.5,725C 733.167,726.84 733.334,727.34 735,726.5C 735.499,731.155 735.666,735.821 735.5,740.5C 734.127,740.343 732.793,740.51 731.5,741C 730.87,742.892 729.87,744.559 728.5,746C 723.581,746.802 718.748,746.635 714,745.5C 712.905,735.909 713.405,726.575 715.5,717.5 Z"/></g>
<g><path style="opacity:1" fill="#182537" d="M 738.5,685.5 C 737.766,684.122 737.099,682.622 736.5,681C 736.957,680.586 737.291,680.086 737.5,679.5C 736.27,676.951 734.77,674.617 733,672.5C 728.241,672.1 723.741,670.933 719.5,669C 717.5,668.333 715.5,668.333 713.5,669C 712.167,677 712.167,685 713.5,693C 719.053,694.57 724.719,694.903 730.5,694C 731.701,693.097 732.535,691.931 733,690.5C 733.414,690.957 733.914,691.291 734.5,691.5C 735.429,690.311 735.762,688.978 735.5,687.5C 736.5,687.5 737.5,687.5 738.5,687.5C 737.947,691.761 735.613,694.594 731.5,696C 724.589,697.384 717.589,697.884 710.5,697.5C 710.5,687.5 710.5,677.5 710.5,667.5C 717.921,667.109 725.254,667.609 732.5,669C 738.227,673.36 740.227,678.86 738.5,685.5 Z"/></g>
<g><path style="opacity:1" fill="#091d3d" d="M 738.5,685.5 C 738.5,686.167 738.5,686.833 738.5,687.5C 737.5,687.5 736.5,687.5 735.5,687.5C 735.762,688.978 735.429,690.311 734.5,691.5C 733.914,691.291 733.414,690.957 733,690.5C 732.535,691.931 731.701,693.097 730.5,694C 724.719,694.903 719.053,694.57 713.5,693C 712.167,685 712.167,677 713.5,669C 715.5,668.333 717.5,668.333 719.5,669C 723.741,670.933 728.241,672.1 733,672.5C 734.77,674.617 736.27,676.951 737.5,679.5C 737.291,680.086 736.957,680.586 736.5,681C 737.099,682.622 737.766,684.122 738.5,685.5 Z"/></g>
<g><path style="opacity:1" fill="#f8f9f9" d="M 644.5,670.5 C 650.286,692.53 656.286,714.53 662.5,736.5C 664.709,745.552 667.043,754.552 669.5,763.5C 669.5,764.5 669.5,765.5 669.5,766.5C 661.167,766.5 652.833,766.5 644.5,766.5C 642.323,758.127 639.99,749.794 637.5,741.5C 626.346,740.505 615.012,740.172 603.5,740.5C 603.5,741.5 603.5,742.5 603.5,743.5C 601.206,751.341 599.206,759.341 597.5,767.5C 595.5,767.5 593.5,767.5 591.5,767.5C 585.5,767.5 579.5,767.5 573.5,767.5C 573.547,764.031 574.213,760.698 575.5,757.5C 577.361,749.719 579.361,742.052 581.5,734.5C 583.582,727.093 585.915,719.76 588.5,712.5C 590.113,712.056 591.28,711.056 592,709.5C 592.155,707.144 592.155,704.811 592,702.5C 592.777,704.701 593.944,704.701 595.5,702.5C 595.115,697.205 595.115,691.871 595.5,686.5C 598.518,673.761 601.852,661.094 605.5,648.5C 616.52,648.168 627.52,648.501 638.5,649.5C 640.541,656.607 642.541,663.607 644.5,670.5 Z"/></g>
<g><path style="opacity:1" fill="#7b7e87" d="M 637.5,741.5 C 625.913,740.889 614.58,741.556 603.5,743.5C 603.5,742.5 603.5,741.5 603.5,740.5C 615.012,740.172 626.346,740.505 637.5,741.5 Z"/></g>
<g><path style="opacity:1" fill="#0f1f3b" d="M 623.5,685.5 C 626.93,697.566 629.596,709.899 631.5,722.5C 624.167,722.5 616.833,722.5 609.5,722.5C 609.232,720.901 609.566,719.568 610.5,718.5C 611.212,719.739 612.212,720.239 613.5,720C 612.39,717.263 612.223,714.429 613,711.5C 615.426,706.286 617.926,701.12 620.5,696C 618.9,694.029 618.734,692.196 620,690.5C 620.333,690.833 620.667,691.167 621,691.5C 621.492,690.451 621.326,689.451 620.5,688.5C 620.879,686.787 621.879,685.787 623.5,685.5 Z"/></g>
<g><path style="opacity:1" fill="#192639" d="M 621.5,676.5 C 622.657,679.273 623.324,682.273 623.5,685.5C 621.879,685.787 620.879,686.787 620.5,688.5C 621.326,689.451 621.492,690.451 621,691.5C 620.667,691.167 620.333,690.833 620,690.5C 618.734,692.196 618.9,694.029 620.5,696C 617.926,701.12 615.426,706.286 613,711.5C 612.223,714.429 612.39,717.263 613.5,720C 612.212,720.239 611.212,719.739 610.5,718.5C 612.699,705.376 615.366,692.376 618.5,679.5C 619.1,678.1 620.1,677.1 621.5,676.5 Z"/></g>
<g><path style="opacity:1" fill="#61636a" d="M 621.5,676.5 C 620.1,677.1 619.1,678.1 618.5,679.5C 618.39,676.941 619.056,674.608 620.5,672.5C 621.429,673.689 621.762,675.022 621.5,676.5 Z"/></g>
<g><path style="opacity:1" fill="#fafbfa" d="M 501.5,649.5 C 509.5,649.5 517.5,649.5 525.5,649.5C 525.168,682.338 525.502,715.004 526.5,747.5C 538.5,747.5 550.5,747.5 562.5,747.5C 562.5,754.167 562.5,760.833 562.5,767.5C 542.167,767.5 521.833,767.5 501.5,767.5C 501.5,728.167 501.5,688.833 501.5,649.5 Z"/></g>
<g><path style="opacity:1" fill="#fcfdfd" d="M 133.5,649.5 C 141.5,649.5 149.5,649.5 157.5,649.5C 157.168,682.338 157.502,715.004 158.5,747.5C 170.5,747.5 182.5,747.5 194.5,747.5C 194.5,753.833 194.5,760.167 194.5,766.5C 174.167,766.5 153.833,766.5 133.5,766.5C 133.5,727.5 133.5,688.5 133.5,649.5 Z"/></g>
<g><path style="opacity:1" fill="#f9faf9" d="M 255.5,647.5 C 274.528,649.862 285.195,660.528 287.5,679.5C 288.804,699.163 288.804,718.83 287.5,738.5C 286.504,747.097 282.837,754.43 276.5,760.5C 272.168,764.165 267.168,766.498 261.5,767.5C 252.5,768.833 243.5,768.833 234.5,767.5C 223.565,765.071 215.732,758.737 211,748.5C 209.785,743.209 208.785,737.876 208,732.5C 207.5,715.837 207.333,699.17 207.5,682.5C 208.339,677.891 209.506,673.224 211,668.5C 215.284,658.041 222.784,651.374 233.5,648.5C 240.822,647.962 248.155,647.629 255.5,647.5 Z"/></g>
<g><path style="opacity:1" fill="#10223c" d="M 236.5,671.5 C 235.877,682.068 235.21,692.735 234.5,703.5C 234.282,715.652 235.449,727.652 238,739.5C 239.649,740.648 241.149,741.981 242.5,743.5C 242.167,744.167 241.833,744.833 241.5,745.5C 242.687,746.519 243.687,747.686 244.5,749C 246.788,748.947 249.121,748.614 251.5,748C 251.957,747.586 252.291,747.086 252.5,746.5C 251.198,744.799 249.531,743.632 247.5,743C 249.479,741.792 251.645,740.959 254,740.5C 259.402,742.104 260.569,740.604 257.5,736C 259.507,732.162 260.507,727.995 260.5,723.5C 257.412,723.803 255.746,722.47 255.5,719.5C 251.894,719.211 248.394,719.544 245,720.5C 244.989,717.341 244.155,714.507 242.5,712C 243.147,705.186 243.98,698.353 245,691.5C 245.333,692.833 245.667,694.167 246,695.5C 249.8,694.801 253.633,694.135 257.5,693.5C 259.33,695.027 260.33,694.527 260.5,692C 260.113,685.246 259.113,678.413 257.5,671.5C 254.718,671.227 252.551,669.894 251,667.5C 246.295,668.453 241.795,669.786 237.5,671.5C 238.203,669.284 239.536,667.451 241.5,666C 252.46,662.647 259.293,666.48 262,677.5C 264,697.167 264,716.833 262,736.5C 260.151,748.695 253.318,753.195 241.5,750C 237.051,746.603 234.551,742.103 234,736.5C 232.436,718.868 232.102,701.201 233,683.5C 233.569,679.205 234.736,675.205 236.5,671.5 Z"/></g>
<g><path style="opacity:1" fill="#081d3e" d="M 236.5,671.5 C 236.833,671.5 237.167,671.5 237.5,671.5C 241.795,669.786 246.295,668.453 251,667.5C 252.551,669.894 254.718,671.227 257.5,671.5C 259.113,678.413 260.113,685.246 260.5,692C 260.33,694.527 259.33,695.027 257.5,693.5C 253.633,694.135 249.8,694.801 246,695.5C 245.667,694.167 245.333,692.833 245,691.5C 243.98,698.353 243.147,705.186 242.5,712C 244.155,714.507 244.989,717.341 245,720.5C 248.394,719.544 251.894,719.211 255.5,719.5C 255.746,722.47 257.412,723.803 260.5,723.5C 260.507,727.995 259.507,732.162 257.5,736C 260.569,740.604 259.402,742.104 254,740.5C 251.645,740.959 249.479,741.792 247.5,743C 249.531,743.632 251.198,744.799 252.5,746.5C 252.291,747.086 251.957,747.586 251.5,748C 249.121,748.614 246.788,748.947 244.5,749C 243.687,747.686 242.687,746.519 241.5,745.5C 241.833,744.833 242.167,744.167 242.5,743.5C 241.149,741.981 239.649,740.648 238,739.5C 235.449,727.652 234.282,715.652 234.5,703.5C 235.21,692.735 235.877,682.068 236.5,671.5 Z"/></g>
<g><path style="opacity:1" fill="#122038" d="M 382.5,685.5 C 382.818,680.968 382.485,676.634 381.5,672.5C 378.7,656.919 369.367,648.419 353.5,647C 340.832,645.046 329.499,647.879 319.5,655.5C 319.608,652.618 320.774,650.285 323,648.5C 323.333,648.833 323.667,649.167 324,649.5C 325.973,646.5 328.806,645 332.5,645C 334.208,643.938 334.874,642.771 334.5,641.5C 335.386,642.325 335.719,643.325 335.5,644.5C 344.39,644.62 353.056,644.287 361.5,643.5C 366.597,645.853 371.597,648.353 376.5,651C 374.842,651.725 374.342,652.892 375,654.5C 376.955,655.453 378.622,656.787 380,658.5C 380.692,661.936 381.692,665.27 383,668.5C 383.333,667.167 383.667,665.833 384,664.5C 384.692,665.025 385.192,665.692 385.5,666.5C 384.227,672.675 383.227,679.009 382.5,685.5 Z"/></g>
<g><path style="opacity:1" fill="#f8f9f9" d="M 381.5,672.5 C 381.5,676.833 381.5,681.167 381.5,685.5C 373.833,685.5 366.167,685.5 358.5,685.5C 358.815,681.629 358.482,677.962 357.5,674.5C 356.085,667.243 351.752,664.076 344.5,665C 339.299,667.204 335.799,671.038 334,676.5C 332.059,696.152 332.059,715.818 334,735.5C 334.767,740.305 336.6,744.639 339.5,748.5C 344.533,752.399 349.533,752.399 354.5,748.5C 358.074,742.714 359.408,736.381 358.5,729.5C 366.564,727.578 374.897,726.912 383.5,727.5C 384.726,758.94 369.726,772.606 338.5,768.5C 336.5,768.167 334.5,767.833 332.5,767.5C 319.636,763.121 311.803,754.121 309,740.5C 307.42,720.2 307.087,699.867 308,679.5C 309.146,671.208 312.313,663.875 317.5,657.5C 317.833,656.5 318.5,655.833 319.5,655.5C 329.499,647.879 340.832,645.046 353.5,647C 369.367,648.419 378.7,656.919 381.5,672.5 Z"/></g>
<g><path style="opacity:1" fill="#f7f9f8" d="M 479.5,739.5 C 476.435,757.565 465.769,767.232 447.5,768.5C 440.471,768.623 433.471,768.29 426.5,767.5C 418.679,765.761 412.345,761.761 407.5,755.5C 406.538,752.243 405.038,749.243 403,746.5C 402.118,743.211 401.452,739.877 401,736.5C 399.556,719.189 399.223,701.855 400,684.5C 400.53,673.452 404.364,663.785 411.5,655.5C 415.701,652.9 420.034,650.566 424.5,648.5C 434.423,646.032 444.423,645.865 454.5,648C 468.245,651.742 476.411,660.576 479,674.5C 482.119,696.152 482.286,717.819 479.5,739.5 Z"/></g>
<g><path style="opacity:1" fill="#69767f" d="M 426.5,735.5 C 427.612,737.599 428.279,739.933 428.5,742.5C 426.837,740.562 426.171,738.228 426.5,735.5 Z"/></g>
<g><path style="opacity:1" fill="#13223d" d="M 455.5,684.5 C 455.988,703.562 455.321,722.562 453.5,741.5C 449.072,751.032 442.072,753.532 432.5,749C 430.779,747.056 429.446,744.89 428.5,742.5C 428.279,739.933 427.612,737.599 426.5,735.5C 423.882,716.687 423.882,698.021 426.5,679.5C 427.924,677.485 428.59,675.152 428.5,672.5C 429.697,669.618 431.697,667.451 434.5,666C 438.5,665.333 442.5,665.333 446.5,666C 449,667.167 450.833,669 452,671.5C 453.863,675.649 455.03,679.982 455.5,684.5 Z"/></g>
<g><path style="opacity:1" fill="#868e98" d="M 455.5,684.5 C 456.661,699.995 456.828,715.661 456,731.5C 455.851,735.133 455.018,738.466 453.5,741.5C 455.321,722.562 455.988,703.562 455.5,684.5 Z"/></g>
<g><path style="opacity:1" fill="#081d3e" d="M 444.5,668.5 C 446.099,670.309 448.099,671.642 450.5,672.5C 452.921,684.187 453.921,696.02 453.5,708C 453.735,719.382 452.402,730.548 449.5,741.5C 446.833,740.833 444.167,740.167 441.5,739.5C 439.737,740.954 438.403,740.62 437.5,738.5C 442.363,736.325 441.697,735.325 435.5,735.5C 435.5,732.833 435.5,730.167 435.5,727.5C 432.722,727.022 430.722,728.022 429.5,730.5C 429.167,727.833 428.833,725.167 428.5,722.5C 428.525,708.641 428.692,694.641 429,680.5C 429.333,679.167 429.667,677.833 430,676.5C 430.654,675.304 431.154,675.304 431.5,676.5C 431.064,680.756 431.064,685.089 431.5,689.5C 434.247,689.813 436.914,689.48 439.5,688.5C 438.311,687.571 436.978,687.238 435.5,687.5C 435.919,682.32 434.919,677.486 432.5,673C 433.444,671.523 434.777,670.523 436.5,670C 439.365,669.817 442.031,669.317 444.5,668.5 Z"/></g>
<g><path style="opacity:1" fill="#636d76" d="M 428.5,672.5 C 428.59,675.152 427.924,677.485 426.5,679.5C 426.41,676.848 427.076,674.515 428.5,672.5 Z"/></g>
<g><path style="opacity:1" fill="#8f9ba7" d="M 255.5,646.5 C 255.5,646.833 255.5,647.167 255.5,647.5C 248.155,647.629 240.822,647.962 233.5,648.5C 240.588,646.761 247.921,646.094 255.5,646.5 Z"/></g>
<g><path style="opacity:1" fill="#0b1e39" d="M 351.5,374.5 C 355.078,380.747 359.744,386.08 365.5,390.5C 367.046,393.919 368.879,397.253 371,400.5C 372.129,402.141 373.629,403.141 375.5,403.5C 375.343,404.873 375.51,406.207 376,407.5C 377.657,409.418 379.49,411.085 381.5,412.5C 382.906,412.973 383.573,413.973 383.5,415.5C 383.5,416.833 383.5,418.167 383.5,419.5C 384.959,419.433 386.292,419.766 387.5,420.5C 388.15,422.435 388.483,424.435 388.5,426.5C 391.47,426.746 392.803,428.412 392.5,431.5C 393.5,431.5 394.5,431.5 395.5,431.5C 395.635,435.627 397.635,438.294 401.5,439.5C 401.892,441.179 402.392,442.846 403,444.5C 405.47,446.791 407.304,449.457 408.5,452.5C 406.97,451.933 405.47,451.267 404,450.5C 402.833,451.667 401.667,452.833 400.5,454C 401.28,455.073 401.113,456.24 400,457.5C 399.135,453.326 399.635,449.326 401.5,445.5C 401.281,444.062 400.781,442.729 400,441.5C 399.517,442.448 399.351,443.448 399.5,444.5C 397.799,444.966 396.299,444.966 395,444.5C 394.517,445.448 394.351,446.448 394.5,447.5C 392.143,447.663 389.81,447.497 387.5,447C 386.692,445.294 385.359,444.461 383.5,444.5C 383.663,446.857 383.497,449.19 383,451.5C 382.51,450.207 382.343,448.873 382.5,447.5C 380.856,447.286 379.356,447.62 378,448.5C 377.333,451.5 377.333,454.5 378,457.5C 378.654,456.304 379.154,456.304 379.5,457.5C 378.876,459.754 377.543,461.421 375.5,462.5C 375.167,480 374.833,497.5 374.5,515C 374.339,532.981 374.839,550.814 376,568.5C 376.5,533.502 376.667,498.502 376.5,463.5C 377.5,463.5 378.5,463.5 379.5,463.5C 379.667,498.168 379.5,532.835 379,567.5C 378.813,571.71 377.98,575.71 376.5,579.5C 377.255,581.988 378.755,583.988 381,585.5C 381.667,584.833 382.333,584.167 383,583.5C 383.818,586.227 383.652,588.894 382.5,591.5C 381.269,590.349 381.269,589.183 382.5,588C 382,587.833 381.5,587.667 381,587.5C 378.251,590.981 374.585,592.314 370,591.5C 367.5,591.333 365,591.167 362.5,591C 362.833,590.667 363.167,590.333 363.5,590C 290.167,589.5 216.834,589.333 143.5,589.5C 143.5,588.167 143.5,586.833 143.5,585.5C 140.287,585.81 137.287,585.477 134.5,584.5C 212.404,584.168 290.237,584.502 368,585.5C 368.995,584.934 369.828,584.267 370.5,583.5C 371.75,583.423 372.583,582.756 373,581.5C 373.667,540.167 373.667,498.833 373,457.5C 372.722,456.584 372.222,455.918 371.5,455.5C 371.167,455.5 370.833,455.5 370.5,455.5C 370.167,454.833 369.833,454.167 369.5,453.5C 373.462,454.135 374.795,452.802 373.5,449.5C 375,438.207 376.333,426.874 377.5,415.5C 376.5,415.5 375.5,415.5 374.5,415.5C 374.5,414.5 374.5,413.5 374.5,412.5C 375.5,412.5 376.5,412.5 377.5,412.5C 377.649,411.448 377.483,410.448 377,409.5C 373.543,411.232 370.709,410.566 368.5,407.5C 367.5,405.5 366.5,403.5 365.5,401.5C 366.549,398.38 365.882,395.547 363.5,393C 360.756,393.991 358.089,393.657 355.5,392C 356.576,390.274 356.743,388.441 356,386.5C 355.087,382.107 353.587,378.107 351.5,374.5 Z"/></g>
<g><path style="opacity:1" fill="#131500" d="M 527.5,583.5 C 606.833,583.5 686.167,583.5 765.5,583.5C 765.53,584.497 765.03,585.164 764,585.5C 687.027,584.17 610.194,584.17 533.5,585.5C 531.102,585.741 529.102,585.074 527.5,583.5 Z"/></g>
<g><path style="opacity:1" fill="#131500" d="M 133.5,583.5 C 212.5,583.5 291.5,583.5 370.5,583.5C 369.828,584.267 368.995,584.934 368,585.5C 290.237,584.502 212.404,584.168 134.5,584.5C 133.833,584.5 133.5,584.167 133.5,583.5 Z"/></g>
<g><path style="opacity:1" fill="#716830" d="M 526.5,455.5 C 526.833,455.5 527.167,455.5 527.5,455.5C 527.5,497.5 527.5,539.5 527.5,581.5C 606.665,582.499 685.998,582.833 765.5,582.5C 765.5,582.833 765.5,583.167 765.5,583.5C 686.167,583.5 606.833,583.5 527.5,583.5C 526.833,583.5 526.5,583.167 526.5,582.5C 526.5,540.167 526.5,497.833 526.5,455.5 Z"/></g>
<g><path style="opacity:1" fill="#d1bb56" d="M 764.5,580.5 C 764.833,580.5 765.167,580.5 765.5,580.5C 765.5,580.833 765.5,581.167 765.5,581.5C 765.5,581.833 765.5,582.167 765.5,582.5C 685.998,582.833 606.665,582.499 527.5,581.5C 528.167,581.5 528.833,581.5 529.5,581.5C 608.002,581.833 686.335,581.499 764.5,580.5 Z"/></g>
<g><path style="opacity:1" fill="#d1ba55" d="M 133.5,455.5 C 149.5,455.5 165.5,455.5 181.5,455.5C 181.389,456.117 181.056,456.617 180.5,457C 165.17,457.5 149.837,457.667 134.5,457.5C 134.5,498.833 134.5,540.167 134.5,581.5C 212.501,581.667 290.501,581.5 368.5,581C 369.056,580.617 369.389,580.117 369.5,579.5C 369.833,579.5 370.167,579.5 370.5,579.5C 370.5,580.5 370.5,581.5 370.5,582.5C 291.5,582.5 212.5,582.5 133.5,582.5C 133.5,540.5 133.5,498.5 133.5,456.5C 133.5,456.167 133.5,455.833 133.5,455.5 Z"/></g>
<g><path style="opacity:1" fill="#e5c02e" d="M 579.5,454.5 C 579.833,454.5 580.167,454.5 580.5,454.5C 580.249,456.17 579.582,457.67 578.5,459C 562.503,459.5 546.503,459.667 530.5,459.5C 530.5,499.5 530.5,539.5 530.5,579.5C 607.17,579.833 683.836,579.5 760.5,578.5C 762.486,538.985 763.153,499.319 762.5,459.5C 747.456,459.4 732.456,459.567 717.5,460C 716.748,459.329 716.414,458.496 716.5,457.5C 731.422,458.483 746.422,458.816 761.5,458.5C 762.496,458.414 763.329,458.748 764,459.5C 764.5,499.832 764.667,540.165 764.5,580.5C 686.335,581.499 608.002,581.833 529.5,581.5C 528.345,540.875 528.178,500.208 529,459.5C 529.5,459 530,458.5 530.5,458C 546.167,457.667 561.833,457.333 577.5,457C 578.056,456.617 578.389,456.117 578.5,455.5C 579.167,455.5 579.5,455.167 579.5,454.5 Z"/></g>
<g><path style="opacity:1" fill="#191d1b" d="M 526.5,455.5 C 526.5,497.833 526.5,540.167 526.5,582.5C 525.167,561.844 524.5,540.844 524.5,519.5C 524.667,498.5 524.833,477.5 525,456.5C 525.383,455.944 525.883,455.611 526.5,455.5 Z"/></g>
<g><path style="opacity:1" fill="#071f38" d="M 527.5,453.5 C 527.5,454.167 527.5,454.833 527.5,455.5C 527.167,455.5 526.833,455.5 526.5,455.5C 525.883,455.611 525.383,455.944 525,456.5C 524.833,477.5 524.667,498.5 524.5,519.5C 524.5,540.844 525.167,561.844 526.5,582.5C 526.5,583.167 526.833,583.5 527.5,583.5C 529.102,585.074 531.102,585.741 533.5,585.5C 531.992,586.746 530.492,588.08 529,589.5C 528.29,588.027 527.124,587.36 525.5,587.5C 525.716,585.319 524.883,583.653 523,582.5C 521.887,583.76 521.72,584.927 522.5,586C 520.911,587.543 519.577,587.543 518.5,586C 519.167,584.333 519.833,582.667 520.5,581C 521.819,544.624 521.819,508.124 520.5,471.5C 520.8,467.597 521.467,463.764 522.5,460C 521.794,457.312 520.461,454.979 518.5,453C 519.856,451.433 520.523,449.6 520.5,447.5C 521.5,447.5 522.5,447.5 523.5,447.5C 523.5,449.5 523.5,451.5 523.5,453.5C 524.833,453.5 526.167,453.5 527.5,453.5 Z"/></g>
<g><path style="opacity:1" fill="#d9c359" d="M 527.5,455.5 C 528.167,455.5 528.833,455.5 529.5,455.5C 545.833,455.5 562.167,455.5 578.5,455.5C 578.389,456.117 578.056,456.617 577.5,457C 561.833,457.333 546.167,457.667 530.5,458C 530,458.5 529.5,459 529,459.5C 528.178,500.208 528.345,540.875 529.5,581.5C 528.833,581.5 528.167,581.5 527.5,581.5C 527.5,539.5 527.5,497.5 527.5,455.5 Z"/></g>
<g><path style="opacity:1" fill="#0f1c26" d="M 766.5,455.5 C 766.833,455.5 767.167,455.5 767.5,455.5C 769.285,491.477 769.785,527.477 769,563.5C 767.92,569.573 767.087,575.573 766.5,581.5C 766.5,539.5 766.5,497.5 766.5,455.5 Z"/></g>
<g><path style="opacity:1" fill="#b09e4d" d="M 319.5,456.5 C 319.5,456.167 319.5,455.833 319.5,455.5C 319.833,455.5 320.167,455.5 320.5,455.5C 337.167,455.5 353.833,455.5 370.5,455.5C 370.833,455.5 371.167,455.5 371.5,455.5C 371.832,498.003 371.499,540.337 370.5,582.5C 370.5,581.5 370.5,580.5 370.5,579.5C 370.5,538.5 370.5,497.5 370.5,456.5C 354.167,456.5 337.833,456.5 321.5,456.5C 320.833,456.5 320.167,456.5 319.5,456.5 Z"/></g>
<g><path style="opacity:1" fill="#d6c45e" d="M 717.5,455.5 C 732.5,455.5 747.5,455.5 762.5,455.5C 763.5,455.5 764.5,455.5 765.5,455.5C 765.5,497.167 765.5,538.833 765.5,580.5C 765.167,580.5 764.833,580.5 764.5,580.5C 764.667,540.165 764.5,499.832 764,459.5C 763.329,458.748 762.496,458.414 761.5,458.5C 747.339,457.669 733.006,457.169 718.5,457C 717.944,456.617 717.611,456.117 717.5,455.5 Z"/></g>
<g><path style="opacity:1" fill="#222112" d="M 371.5,455.5 C 372.222,455.918 372.722,456.584 373,457.5C 373.667,498.833 373.667,540.167 373,581.5C 372.583,582.756 371.75,583.423 370.5,583.5C 370.5,583.167 370.5,582.833 370.5,582.5C 371.499,540.337 371.832,498.003 371.5,455.5 Z"/></g>
<g><path style="opacity:1" fill="#6e652a" d="M 133.5,456.5 C 133.5,498.5 133.5,540.5 133.5,582.5C 212.5,582.5 291.5,582.5 370.5,582.5C 370.5,582.833 370.5,583.167 370.5,583.5C 291.5,583.5 212.5,583.5 133.5,583.5C 133.167,583.5 132.833,583.5 132.5,583.5C 132.168,540.997 132.501,498.663 133.5,456.5 Z"/></g>
<g><path style="opacity:1" fill="#0d2333" d="M 760.5,259.5 C 748.34,260.331 736.007,260.831 723.5,261C 722.151,261.772 721.318,262.939 721,264.5C 720.174,327.207 720.341,389.874 721.5,452.5C 719.504,388.509 718.837,324.175 719.5,259.5C 733.167,259.5 746.833,259.5 760.5,259.5 Z"/></g>
<g><path style="opacity:1" fill="#0a1e35" d="M 767.5,258.5 C 767.665,261.85 767.498,265.183 767,268.5C 766.802,266.618 766.302,264.952 765.5,263.5C 765.5,262.5 765.5,261.5 765.5,260.5C 762.477,260.105 761.477,261.105 762.5,263.5C 762.167,264.5 761.5,265.167 760.5,265.5C 758.876,263.559 756.876,262.226 754.5,261.5C 745.226,262.591 736.059,262.591 727,261.5C 721.844,263.125 720.677,266.125 723.5,270.5C 721.986,305.448 721.319,340.448 721.5,375.5C 721.505,399.905 721.838,424.238 722.5,448.5C 722.484,450.484 723.484,451.484 725.5,451.5C 736.792,451.219 748.125,451.219 759.5,451.5C 759.351,450.448 759.517,449.448 760,448.5C 760.309,449.766 760.809,450.933 761.5,452C 763.207,452.195 764.874,452.195 766.5,452C 767.337,453.011 767.67,454.178 767.5,455.5C 767.167,455.5 766.833,455.5 766.5,455.5C 751.695,453.839 736.695,452.839 721.5,452.5C 720.341,389.874 720.174,327.207 721,264.5C 721.318,262.939 722.151,261.772 723.5,261C 736.007,260.831 748.34,260.331 760.5,259.5C 762.95,259.702 765.283,259.369 767.5,258.5 Z"/></g>
<g><path style="opacity:1" fill="#272612" d="M 578.5,130.5 C 637.998,129.501 697.664,129.168 757.5,129.5C 760.833,129.5 764.167,129.5 767.5,129.5C 767.5,132.833 767.5,136.167 767.5,139.5C 767.5,178.167 767.5,216.833 767.5,255.5C 767.5,256.5 767.5,257.5 767.5,258.5C 765.283,259.369 762.95,259.702 760.5,259.5C 746.833,259.5 733.167,259.5 719.5,259.5C 718.837,324.175 719.504,388.509 721.5,452.5C 736.695,452.839 751.695,453.839 766.5,455.5C 766.5,497.5 766.5,539.5 766.5,581.5C 766.167,581.5 765.833,581.5 765.5,581.5C 765.5,581.167 765.5,580.833 765.5,580.5C 765.5,538.833 765.5,497.167 765.5,455.5C 764.5,455.5 763.5,455.5 762.5,455.5C 748.098,454.826 733.598,454.159 719,453.5C 718.5,388.501 718.333,323.501 718.5,258.5C 734.342,258.83 750.009,258.496 765.5,257.5C 765.5,215.5 765.5,173.5 765.5,131.5C 703.336,130.501 641.002,130.168 578.5,130.5 Z"/></g>
<g><path style="opacity:1" fill="#2b2601" d="M 718.5,258.5 C 718.333,323.501 718.5,388.501 719,453.5C 733.598,454.159 748.098,454.826 762.5,455.5C 747.5,455.5 732.5,455.5 717.5,455.5C 717.168,389.665 717.501,323.998 718.5,258.5 Z"/></g>
<g><path style="opacity:1" fill="#9c8c41" d="M 717.5,257.5 C 733.5,257.5 749.5,257.5 765.5,257.5C 750.009,258.496 734.342,258.83 718.5,258.5C 717.501,323.998 717.168,389.665 717.5,455.5C 716.167,389.5 716.167,323.5 717.5,257.5 Z"/></g>
<g><path style="opacity:1" fill="#e3c02e" d="M 183.5,263.5 C 184.665,327.332 184.832,391.332 184,455.5C 183.167,456.333 182.333,457.167 181.5,458C 166.259,458.175 151.092,458.675 136,459.5C 135.333,499.167 135.333,538.833 136,578.5C 213.429,579.498 290.929,579.832 368.5,579.5C 368.5,539.5 368.5,499.5 368.5,459.5C 353.163,459.333 337.83,459.5 322.5,460C 321.584,460.374 320.75,460.874 320,461.5C 319.506,459.866 319.34,458.199 319.5,456.5C 320.167,456.5 320.833,456.5 321.5,456.5C 337.235,457.174 353.069,457.84 369,458.5C 369.5,498.832 369.667,539.165 369.5,579.5C 369.389,580.117 369.056,580.617 368.5,581C 290.501,581.5 212.501,581.667 134.5,581.5C 134.5,540.167 134.5,498.833 134.5,457.5C 149.837,457.667 165.17,457.5 180.5,457C 181.056,456.617 181.389,456.117 181.5,455.5C 182.117,455.389 182.617,455.056 183,454.5C 183.5,390.834 183.667,327.168 183.5,263.5 Z"/></g>
<g><path style="opacity:1" fill="#e4c13b" d="M 763.5,255.5 C 748.167,256.167 732.833,256.833 717.5,257.5C 716.167,323.5 716.167,389.5 717.5,455.5C 717.611,456.117 717.944,456.617 718.5,457C 733.006,457.169 747.339,457.669 761.5,458.5C 746.422,458.816 731.422,458.483 716.5,457.5C 715.883,457.389 715.383,457.056 715,456.5C 714.667,390.167 714.333,323.833 714,257.5C 713.5,257 713,256.5 712.5,256C 729.497,255.5 746.497,255.333 763.5,255.5 Z"/></g>
<g><path style="opacity:1" fill="#d3bd51" d="M 177.5,257.5 C 177.5,257.167 177.5,256.833 177.5,256.5C 182.906,255.735 184.906,258.069 183.5,263.5C 183.667,327.168 183.5,390.834 183,454.5C 182.617,455.056 182.117,455.389 181.5,455.5C 181.5,389.833 181.5,324.167 181.5,258.5C 180.432,257.566 179.099,257.232 177.5,257.5 Z"/></g>
<g><path style="opacity:1" fill="#1c1d18" d="M 133.5,258.5 C 149.167,258.5 164.833,258.5 180.5,258.5C 180.5,323.833 180.5,389.167 180.5,454.5C 165.167,454.5 149.833,454.5 134.5,454.5C 149.324,453.504 164.324,453.171 179.5,453.5C 179.5,388.833 179.5,324.167 179.5,259.5C 165.5,259.5 151.5,259.5 137.5,259.5C 135.901,259.768 134.568,259.434 133.5,258.5 Z"/></g>
<g><path style="opacity:1" fill="#111f2f" d="M 137.5,259.5 C 151.5,259.5 165.5,259.5 179.5,259.5C 179.5,324.167 179.5,388.833 179.5,453.5C 164.324,453.171 149.324,453.504 134.5,454.5C 133.833,454.5 133.5,454.833 133.5,455.5C 133.5,455.833 133.5,456.167 133.5,456.5C 132.501,498.663 132.168,540.997 132.5,583.5C 130.958,582.699 129.292,582.366 127.5,582.5C 127.5,581.167 127.5,579.833 127.5,578.5C 128.5,578.5 129.5,578.5 130.5,578.5C 130.667,541.165 130.5,503.832 130,466.5C 128.097,463.829 127.264,460.829 127.5,457.5C 130.468,457.374 132.468,455.874 133.5,453C 135.209,451.455 137.209,450.622 139.5,450.5C 146.015,450.926 152.682,450.926 159.5,450.5C 165.961,450.63 172.294,451.297 178.5,452.5C 178.833,391.83 178.5,331.163 177.5,270.5C 177.825,329.228 177.492,388.228 176.5,447.5C 175.5,388.837 175.167,330.17 175.5,271.5C 171.551,271.307 171.551,270.807 175.5,270C 174.643,269.311 173.977,268.478 173.5,267.5C 177.552,267.293 179.052,265.293 178,261.5C 177.667,261.833 177.333,262.167 177,262.5C 163.773,261.018 150.606,260.018 137.5,259.5 Z"/></g>
<g><path style="opacity:1" fill="#2e2700" d="M 180.5,258.5 C 180.833,258.5 181.167,258.5 181.5,258.5C 181.5,324.167 181.5,389.833 181.5,455.5C 165.5,455.5 149.5,455.5 133.5,455.5C 133.5,454.833 133.833,454.5 134.5,454.5C 149.833,454.5 165.167,454.5 180.5,454.5C 180.5,389.167 180.5,323.833 180.5,258.5 Z"/></g>
<g><path style="opacity:1" fill="#081c40" d="M 765.5,263.5 C 765.16,266.144 765.827,268.477 767.5,270.5C 766.311,271.429 764.978,271.762 763.5,271.5C 763.5,270.5 763.5,269.5 763.5,268.5C 760.412,268.377 757.745,269.377 755.5,271.5C 754.328,271.081 753.328,270.415 752.5,269.5C 744.368,271.427 736.035,272.094 727.5,271.5C 728.277,282.148 728.61,292.815 728.5,303.5C 727.5,303.5 726.5,303.5 725.5,303.5C 725.172,351.876 725.505,400.209 726.5,448.5C 725.3,449.292 723.967,449.292 722.5,448.5C 721.838,424.238 721.505,399.905 721.5,375.5C 721.319,340.448 721.986,305.448 723.5,270.5C 720.677,266.125 721.844,263.125 727,261.5C 736.059,262.591 745.226,262.591 754.5,261.5C 756.876,262.226 758.876,263.559 760.5,265.5C 761.5,265.167 762.167,264.5 762.5,263.5C 761.477,261.105 762.477,260.105 765.5,260.5C 765.5,261.5 765.5,262.5 765.5,263.5 Z"/></g>
<g><path style="opacity:1" fill="#092131" d="M 767.5,139.5 C 768.833,158.488 769.5,177.822 769.5,197.5C 769.5,217.178 768.833,236.512 767.5,255.5C 767.5,216.833 767.5,178.167 767.5,139.5 Z"/></g>
<g><path style="opacity:1" fill="#ddcc65" d="M 764.5,131.5 C 764.833,131.5 765.167,131.5 765.5,131.5C 765.5,173.5 765.5,215.5 765.5,257.5C 749.5,257.5 733.5,257.5 717.5,257.5C 732.833,256.833 748.167,256.167 763.5,255.5C 764.499,214.337 764.832,173.003 764.5,131.5 Z"/></g>
<g><path style="opacity:1" fill="#e0c63a" d="M 764.5,131.5 C 764.832,173.003 764.499,214.337 763.5,255.5C 763.667,215.499 763.5,175.499 763,135.5C 762.626,134.584 762.126,133.75 761.5,133C 701.167,132.333 640.833,132.333 580.5,133C 578.917,134.758 577.25,136.258 575.5,137.5C 576.048,135.606 577.048,133.94 578.5,132.5C 640.496,131.5 702.496,131.167 764.5,131.5 Z"/></g>
<g><path style="opacity:1" fill="#e5c32e" d="M 135.5,132.5 C 197.002,132.168 258.336,132.501 319.5,133.5C 258.5,133.5 197.5,133.5 136.5,133.5C 135.883,154.154 135.549,174.821 135.5,195.5C 135.364,215.208 135.864,234.874 137,254.5C 150.598,255.158 164.098,255.825 177.5,256.5C 163.255,256.824 149.088,256.49 135,255.5C 134.169,214.331 134.335,173.331 135.5,132.5 Z"/></g>
<g><path style="opacity:1" fill="#dec65b" d="M 133.5,131.5 C 134.167,131.5 134.833,131.5 135.5,131.5C 135.5,131.833 135.5,132.167 135.5,132.5C 134.335,173.331 134.169,214.331 135,255.5C 149.088,256.49 163.255,256.824 177.5,256.5C 177.5,256.833 177.5,257.167 177.5,257.5C 162.833,257.5 148.167,257.5 133.5,257.5C 133.5,215.5 133.5,173.5 133.5,131.5 Z"/></g>
<g><path style="opacity:1" fill="#665c24" d="M 132.5,130.5 C 132.833,130.5 133.167,130.5 133.5,130.5C 133.5,130.833 133.5,131.167 133.5,131.5C 133.5,173.5 133.5,215.5 133.5,257.5C 148.167,257.5 162.833,257.5 177.5,257.5C 179.099,257.232 180.432,257.566 181.5,258.5C 181.167,258.5 180.833,258.5 180.5,258.5C 164.833,258.5 149.167,258.5 133.5,258.5C 132.833,258.5 132.5,258.167 132.5,257.5C 132.5,215.167 132.5,172.833 132.5,130.5 Z"/></g>
<g><path style="opacity:1" fill="#1a1d21" d="M 132.5,130.5 C 132.5,172.833 132.5,215.167 132.5,257.5C 130.698,256.685 129.698,255.185 129.5,253C 130.325,212.529 130.825,172.029 131,131.5C 131.383,130.944 131.883,130.611 132.5,130.5 Z"/></g>
<g><path style="opacity:1" fill="#cfb645" d="M 321.5,132.5 C 323.9,134.296 325.567,136.63 326.5,139.5C 327.08,141.749 328.413,143.415 330.5,144.5C 331.806,146.473 333.473,148.139 335.5,149.5C 339.167,155.5 342.833,161.5 346.5,167.5C 343.935,164.591 341.269,161.591 338.5,158.5C 337.014,156.698 336.014,154.698 335.5,152.5C 334.167,152.5 332.833,152.5 331.5,152.5C 331.657,151.127 331.49,149.793 331,148.5C 329.048,146.259 326.882,144.259 324.5,142.5C 323.901,139.092 322.568,136.092 320.5,133.5C 321.167,133.5 321.5,133.167 321.5,132.5 Z"/></g>
<g><path style="opacity:1" fill="#eec316" d="M 763.5,255.5 C 746.497,255.333 729.497,255.5 712.5,256C 713,256.5 713.5,257 714,257.5C 714.333,323.833 714.667,390.167 715,456.5C 715.383,457.056 715.883,457.389 716.5,457.5C 716.414,458.496 716.748,459.329 717.5,460C 732.456,459.567 747.456,459.4 762.5,459.5C 763.153,499.319 762.486,538.985 760.5,578.5C 683.836,579.5 607.17,579.833 530.5,579.5C 530.5,539.5 530.5,499.5 530.5,459.5C 546.503,459.667 562.503,459.5 578.5,459C 579.582,457.67 580.249,456.17 580.5,454.5C 581.167,433.503 581.5,412.336 581.5,391C 581.5,369.489 580.833,348.323 579.5,327.5C 578.508,327.328 577.842,327.662 577.5,328.5C 572.677,328.327 570.677,330.661 571.5,335.5C 569.076,335.192 566.743,335.526 564.5,336.5C 561.09,339.319 559.257,342.986 559,347.5C 558.692,346.692 558.192,346.025 557.5,345.5C 556.618,346.76 555.618,347.926 554.5,349C 556.192,350.401 556.859,352.234 556.5,354.5C 552.523,356.423 550.523,359.757 550.5,364.5C 549.167,364.5 547.833,364.5 546.5,364.5C 546.136,367.801 544.969,370.801 543,373.5C 542.667,373.167 542.333,372.833 542,372.5C 538.168,376.816 535.668,381.816 534.5,387.5C 533.07,387.421 531.736,387.754 530.5,388.5C 529.102,390.898 527.102,392.565 524.5,393.5C 523.668,396.161 522.834,398.828 522,401.5C 519.828,402.509 518.662,404.176 518.5,406.5C 517.178,406.67 516.011,406.337 515,405.5C 513.766,408.42 512.766,411.42 512,414.5C 509.333,415.833 507.333,417.833 506,420.5C 504.787,424.233 503.62,427.9 502.5,431.5C 500.508,431.328 498.842,431.995 497.5,433.5C 495.101,438.204 492.768,442.871 490.5,447.5C 490.573,449.027 489.906,450.027 488.5,450.5C 483.025,453.087 479.691,457.421 478.5,463.5C 476.989,464.502 475.322,465.169 473.5,465.5C 473.643,467.262 473.309,468.929 472.5,470.5C 468.743,472.928 466.076,476.261 464.5,480.5C 463.675,481.386 462.675,481.719 461.5,481.5C 460.494,485.326 459.161,488.992 457.5,492.5C 455.085,494.064 452.752,495.898 450.5,498C 449.207,498.49 447.873,498.657 446.5,498.5C 446.129,494.75 444.129,492.417 440.5,491.5C 439.261,488.411 437.761,485.411 436,482.5C 435.092,480.561 433.592,479.561 431.5,479.5C 431.5,479.167 431.5,478.833 431.5,478.5C 431.849,475.01 430.349,472.677 427,471.5C 424.001,466.506 421.001,461.506 418,456.5C 416.67,455.418 415.17,454.751 413.5,454.5C 411.445,452.445 409.779,450.112 408.5,447.5C 406.489,443.296 404.656,438.963 403,434.5C 400.741,433.62 398.575,432.62 396.5,431.5C 396.167,431.5 395.833,431.5 395.5,431.5C 394.529,429.517 393.529,427.517 392.5,425.5C 391.955,423.407 391.122,421.407 390,419.5C 385.938,413.627 381.772,407.961 377.5,402.5C 375.682,396.872 373.349,391.538 370.5,386.5C 369.5,386.5 368.5,386.5 367.5,386.5C 367.5,385.5 367.5,384.5 367.5,383.5C 366.5,383.5 365.5,383.5 364.5,383.5C 362.921,379.993 361.588,376.326 360.5,372.5C 359.833,372.833 359.167,373.167 358.5,373.5C 356.121,369.689 352.954,366.689 349,364.5C 348.225,360.597 346.225,357.597 343,355.5C 341.125,352.412 339.792,349.079 339,345.5C 337.989,344.663 336.822,344.33 335.5,344.5C 334.4,342.505 333.4,339.838 332.5,336.5C 331.311,335.571 329.978,335.238 328.5,335.5C 328.684,332.679 327.351,331.012 324.5,330.5C 323.571,329.311 323.238,327.978 323.5,326.5C 321.5,326.5 319.5,326.5 317.5,326.5C 316.839,369.846 317.505,412.846 319.5,455.5C 319.5,455.833 319.5,456.167 319.5,456.5C 319.34,458.199 319.506,459.866 320,461.5C 320.75,460.874 321.584,460.374 322.5,460C 337.83,459.5 353.163,459.333 368.5,459.5C 368.5,499.5 368.5,539.5 368.5,579.5C 290.929,579.832 213.429,579.498 136,578.5C 135.333,538.833 135.333,499.167 136,459.5C 151.092,458.675 166.259,458.175 181.5,458C 182.333,457.167 183.167,456.333 184,455.5C 184.832,391.332 184.665,327.332 183.5,263.5C 184.906,258.069 182.906,255.735 177.5,256.5C 164.098,255.825 150.598,255.158 137,254.5C 135.864,234.874 135.364,215.208 135.5,195.5C 135.549,174.821 135.883,154.154 136.5,133.5C 197.5,133.5 258.5,133.5 319.5,133.5C 319.833,133.5 320.167,133.5 320.5,133.5C 322.568,136.092 323.901,139.092 324.5,142.5C 326.882,144.259 329.048,146.259 331,148.5C 331.49,149.793 331.657,151.127 331.5,152.5C 332.833,152.5 334.167,152.5 335.5,152.5C 336.014,154.698 337.014,156.698 338.5,158.5C 341.269,161.591 343.935,164.591 346.5,167.5C 347.585,171.927 349.919,175.594 353.5,178.5C 357.141,185.285 361.641,191.285 367,196.5C 370.018,201.203 372.518,206.203 374.5,211.5C 380.336,215.164 384.503,220.164 387,226.5C 388.926,228.539 391.093,230.206 393.5,231.5C 394.596,235.449 395.762,239.449 397,243.5C 399.726,245.403 402.56,247.069 405.5,248.5C 405.343,249.873 405.51,251.207 406,252.5C 407.745,254.089 408.912,256.089 409.5,258.5C 412.834,259.561 414.334,261.895 414,265.5C 415.264,267.607 417.097,268.607 419.5,268.5C 422.177,273.363 424.677,278.363 427,283.5C 429.876,288.253 433.709,291.92 438.5,294.5C 438.343,295.873 438.51,297.207 439,298.5C 441.54,300.705 443.707,303.205 445.5,306C 446.094,306.464 446.761,306.631 447.5,306.5C 447.5,307.5 447.5,308.5 447.5,309.5C 451.103,308.622 454.603,307.289 458,305.5C 461.62,295.859 466.953,287.192 474,279.5C 474.49,278.207 474.657,276.873 474.5,275.5C 479.81,269.597 485.144,263.597 490.5,257.5C 492.722,254.39 494.388,251.057 495.5,247.5C 497.144,247.714 498.644,247.38 500,246.5C 501.836,241.814 503.669,237.148 505.5,232.5C 508.241,230.025 510.241,227.025 511.5,223.5C 512.5,223.5 513.5,223.5 514.5,223.5C 515.448,220.86 516.448,218.193 517.5,215.5C 520.687,213.656 522.687,210.989 523.5,207.5C 523.5,207.167 523.5,206.833 523.5,206.5C 528.745,201.758 533.911,196.758 539,191.5C 541.773,186.287 544.273,180.953 546.5,175.5C 550.037,174.614 551.704,172.281 551.5,168.5C 553.716,167.797 555.549,166.464 557,164.5C 558.233,161.266 560.233,158.599 563,156.5C 565.459,152.273 567.626,147.94 569.5,143.5C 569.5,142.833 569.833,142.5 570.5,142.5C 572.5,141.167 574.167,139.5 575.5,137.5C 577.25,136.258 578.917,134.758 580.5,133C 640.833,132.333 701.167,132.333 761.5,133C 762.126,133.75 762.626,134.584 763,135.5C 763.5,175.499 763.667,215.499 763.5,255.5 Z"/></g>
<g><path style="opacity:1" fill="#2a2910" d="M 465.5,482.5 C 464.787,487.587 462.287,491.587 458,494.5C 455.953,497.166 454.453,500.166 453.5,503.5C 451.516,504.694 449.516,504.694 447.5,503.5C 445.118,501.785 443.118,499.785 441.5,497.5C 440.758,495.02 439.758,492.687 438.5,490.5C 439.167,490.833 439.833,491.167 440.5,491.5C 443.004,495.828 446.004,499.828 449.5,503.5C 452.421,499.981 455.087,496.314 457.5,492.5C 460.547,489.455 463.213,486.122 465.5,482.5 Z"/></g>
<g><path style="opacity:1" fill="#d1bd50" d="M 440.5,491.5 C 444.129,492.417 446.129,494.75 446.5,498.5C 447.873,498.657 449.207,498.49 450.5,498C 452.752,495.898 455.085,494.064 457.5,492.5C 455.087,496.314 452.421,499.981 449.5,503.5C 446.004,499.828 443.004,495.828 440.5,491.5 Z"/></g>
<g><path style="opacity:1" fill="#0b1d39" d="M 482.5,463.5 C 482.5,464.833 482.5,466.167 482.5,467.5C 481.5,467.5 480.5,467.5 479.5,467.5C 479.5,471.167 479.5,474.833 479.5,478.5C 474.726,476.723 471.726,478.39 470.5,483.5C 471.517,486.028 472.684,486.028 474,483.5C 475.669,485.353 475.835,487.353 474.5,489.5C 473.522,489.023 472.689,488.357 472,487.5C 471.691,488.766 471.191,489.933 470.5,491C 473.728,494.221 473.062,495.721 468.5,495.5C 468.167,500.833 467.833,506.167 467.5,511.5C 466.167,511.5 464.833,511.5 463.5,511.5C 463.5,512.5 463.5,513.5 463.5,514.5C 458.167,514.5 452.833,514.5 447.5,514.5C 447.5,512.833 447.5,511.167 447.5,509.5C 454.691,512.64 458.024,510.307 457.5,502.5C 456.041,502.433 454.708,502.766 453.5,503.5C 454.453,500.166 455.953,497.166 458,494.5C 462.287,491.587 464.787,487.587 465.5,482.5C 466.167,482.5 466.5,482.167 466.5,481.5C 469.596,480.24 471.929,478.074 473.5,475C 472.944,474.617 472.611,474.117 472.5,473.5C 473.811,470.865 475.478,468.531 477.5,466.5C 479.354,465.759 481.021,464.759 482.5,463.5 Z"/></g>
<g><path style="opacity:1" fill="#c0ab50" d="M 431.5,479.5 C 433.592,479.561 435.092,480.561 436,482.5C 437.761,485.411 439.261,488.411 440.5,491.5C 439.833,491.167 439.167,490.833 438.5,490.5C 436.588,486.583 434.255,482.917 431.5,479.5 Z"/></g>
<g><path style="opacity:1" fill="#2b2b11" d="M 472.5,473.5 C 472.611,474.117 472.944,474.617 473.5,475C 471.929,478.074 469.596,480.24 466.5,481.5C 468.025,478.437 470.025,475.77 472.5,473.5 Z"/></g>
<g><path style="opacity:1" fill="#cfb74e" d="M 413.5,455.5 C 413.5,455.167 413.5,454.833 413.5,454.5C 415.17,454.751 416.67,455.418 418,456.5C 421.001,461.506 424.001,466.506 427,471.5C 430.349,472.677 431.849,475.01 431.5,478.5C 425.5,470.833 419.5,463.167 413.5,455.5 Z"/></g>
<g><path style="opacity:1" fill="#d0ba4b" d="M 478.5,463.5 C 478.443,464.609 478.11,465.609 477.5,466.5C 475.478,468.531 473.811,470.865 472.5,473.5C 470.025,475.77 468.025,478.437 466.5,481.5C 466.5,482.167 466.167,482.5 465.5,482.5C 463.213,486.122 460.547,489.455 457.5,492.5C 459.161,488.992 460.494,485.326 461.5,481.5C 462.675,481.719 463.675,481.386 464.5,480.5C 466.076,476.261 468.743,472.928 472.5,470.5C 473.309,468.929 473.643,467.262 473.5,465.5C 475.322,465.169 476.989,464.502 478.5,463.5 Z"/></g>
<g><path style="opacity:1" fill="#131d2c" d="M 409.5,453.5 C 410.605,454.6 411.938,455.267 413.5,455.5C 414.752,458.983 415.586,462.649 416,466.5C 417.356,465.62 418.856,465.286 420.5,465.5C 420.5,467.5 420.5,469.5 420.5,471.5C 421.833,471.5 423.167,471.5 424.5,471.5C 425.442,475.438 427.775,478.105 431.5,479.5C 434.255,482.917 436.588,486.583 438.5,490.5C 439.758,492.687 440.758,495.02 441.5,497.5C 440.504,497.586 439.671,497.252 439,496.5C 438.624,492.091 436.457,489.091 432.5,487.5C 431.548,485.955 431.215,484.288 431.5,482.5C 429.876,482.64 428.71,481.973 428,480.5C 427.282,481.451 426.449,481.617 425.5,481C 426.517,479.951 426.684,478.784 426,477.5C 424.281,474.781 421.947,472.781 419,471.5C 418.667,469.833 418.333,468.167 418,466.5C 417.009,467.939 415.676,468.939 414,469.5C 412.892,465.914 412.392,462.247 412.5,458.5C 411.5,458.5 410.5,458.5 409.5,458.5C 409.5,456.833 409.5,455.167 409.5,453.5 Z"/></g>
<g><path style="opacity:1" fill="#e1c44d" d="M 321.5,456.5 C 337.833,456.5 354.167,456.5 370.5,456.5C 370.5,497.5 370.5,538.5 370.5,579.5C 370.167,579.5 369.833,579.5 369.5,579.5C 369.667,539.165 369.5,498.832 369,458.5C 353.069,457.84 337.235,457.174 321.5,456.5 Z"/></g>
<g><path style="opacity:1" fill="#282315" d="M 483.5,458.5 C 483.634,460.292 483.301,461.958 482.5,463.5C 481.021,464.759 479.354,465.759 477.5,466.5C 478.11,465.609 478.443,464.609 478.5,463.5C 480.395,462.027 482.061,460.36 483.5,458.5 Z"/></g>
<g><path style="opacity:1" fill="#232316" d="M 413.5,455.5 C 419.5,463.167 425.5,470.833 431.5,478.5C 431.5,478.833 431.5,479.167 431.5,479.5C 427.775,478.105 425.442,475.438 424.5,471.5C 423.167,471.5 421.833,471.5 420.5,471.5C 420.5,469.5 420.5,467.5 420.5,465.5C 418.856,465.286 417.356,465.62 416,466.5C 415.586,462.649 414.752,458.983 413.5,455.5 Z"/></g>
<g><path style="opacity:1" fill="#ceb750" d="M 488.5,450.5 C 486.807,453.184 485.14,455.851 483.5,458.5C 482.061,460.36 480.395,462.027 478.5,463.5C 479.691,457.421 483.025,453.087 488.5,450.5 Z"/></g>
<g><path style="opacity:1" fill="#1b2119" d="M 575.5,453.5 C 560.167,454.167 544.833,454.833 529.5,455.5C 528.833,455.5 528.167,455.5 527.5,455.5C 527.5,454.833 527.5,454.167 527.5,453.5C 543.405,453.418 559.405,453.418 575.5,453.5 Z"/></g>
<g><path style="opacity:1" fill="#29260f" d="M 490.5,447.5 C 490.833,447.5 491.167,447.5 491.5,447.5C 490.414,452.262 487.747,455.928 483.5,458.5C 485.14,455.851 486.807,453.184 488.5,450.5C 489.906,450.027 490.573,449.027 490.5,447.5 Z"/></g>
<g><path style="opacity:1" fill="#cbb751" d="M 502.5,431.5 C 500.167,434.833 497.833,438.167 495.5,441.5C 495.5,441.833 495.5,442.167 495.5,442.5C 493.413,443.585 492.08,445.251 491.5,447.5C 491.167,447.5 490.833,447.5 490.5,447.5C 492.768,442.871 495.101,438.204 497.5,433.5C 498.842,431.995 500.508,431.328 502.5,431.5 Z"/></g>
<g><path style="opacity:1" fill="#282710" d="M 401.5,439.5 C 403.833,442.167 406.167,444.833 408.5,447.5C 409.779,450.112 411.445,452.445 413.5,454.5C 413.5,454.833 413.5,455.167 413.5,455.5C 411.938,455.267 410.605,454.6 409.5,453.5C 409.5,452.833 409.167,452.5 408.5,452.5C 407.304,449.457 405.47,446.791 403,444.5C 402.392,442.846 401.892,441.179 401.5,439.5 Z"/></g>
<g><path style="opacity:1" fill="#313010" d="M 495.5,442.5 C 494.92,444.749 493.587,446.415 491.5,447.5C 492.08,445.251 493.413,443.585 495.5,442.5 Z"/></g>
<g><path style="opacity:1" fill="#26250e" d="M 502.5,431.5 C 502.833,431.5 503.167,431.5 503.5,431.5C 503.634,433.292 503.301,434.958 502.5,436.5C 500.36,438.458 498.027,440.125 495.5,441.5C 497.833,438.167 500.167,434.833 502.5,431.5 Z"/></g>
<g><path style="opacity:1" fill="#ceb54f" d="M 396.5,431.5 C 398.575,432.62 400.741,433.62 403,434.5C 404.656,438.963 406.489,443.296 408.5,447.5C 406.167,444.833 403.833,442.167 401.5,439.5C 399.833,436.833 398.167,434.167 396.5,431.5 Z"/></g>
<g><path style="opacity:1" fill="#24200d" d="M 395.5,431.5 C 395.833,431.5 396.167,431.5 396.5,431.5C 398.167,434.167 399.833,436.833 401.5,439.5C 397.635,438.294 395.635,435.627 395.5,431.5 Z"/></g>
<g><path style="opacity:1" fill="#272412" d="M 387.5,420.5 C 389.395,421.973 391.061,423.64 392.5,425.5C 393.529,427.517 394.529,429.517 395.5,431.5C 394.5,431.5 393.5,431.5 392.5,431.5C 392.803,428.412 391.47,426.746 388.5,426.5C 388.483,424.435 388.15,422.435 387.5,420.5 Z"/></g>
<g><path style="opacity:1" fill="#0e1e32" d="M 543.5,380.5 C 540.541,385.139 537.541,389.806 534.5,394.5C 535.485,396.098 535.651,397.765 535,399.5C 532.976,401.358 530.809,403.025 528.5,404.5C 527.614,405.325 527.281,406.325 527.5,407.5C 526.448,407.351 525.448,407.517 524.5,408C 523.042,410.46 521.209,412.627 519,414.5C 518.248,419.942 517.081,425.276 515.5,430.5C 515.167,430.833 514.833,431.167 514.5,431.5C 513.784,429.518 512.617,427.851 511,426.5C 507.827,428.681 505.827,431.681 505,435.5C 504.329,436.252 503.496,436.586 502.5,436.5C 503.301,434.958 503.634,433.292 503.5,431.5C 511.315,424.003 517.649,415.336 522.5,405.5C 523.833,405.5 525.167,405.5 526.5,405.5C 526.5,404.5 526.5,403.5 526.5,402.5C 527.822,402.67 528.989,402.337 530,401.5C 529.775,398.525 530.275,395.525 531.5,392.5C 532.552,392.649 533.552,392.483 534.5,392C 536.635,388.52 538.802,385.02 541,381.5C 541.671,380.748 542.504,380.414 543.5,380.5 Z"/></g>
<g><path style="opacity:1" fill="#2f2a12" d="M 383.5,415.5 C 385.587,416.585 386.92,418.251 387.5,420.5C 386.292,419.766 384.959,419.433 383.5,419.5C 383.5,418.167 383.5,416.833 383.5,415.5 Z"/></g>
<g><path style="opacity:1" fill="#282511" d="M 522.5,405.5 C 517.649,415.336 511.315,424.003 503.5,431.5C 506.833,426.167 510.167,420.833 513.5,415.5C 516.471,413.557 518.471,410.891 519.5,407.5C 520.5,406.833 521.5,406.167 522.5,405.5 Z"/></g>
<g><path style="opacity:1" fill="#dbbe3e" d="M 534.5,387.5 C 533.248,389.001 532.248,390.668 531.5,392.5C 528.117,396.553 525.117,400.886 522.5,405.5C 521.5,406.167 520.5,406.833 519.5,407.5C 518.504,407.414 517.671,407.748 517,408.5C 515.87,410.933 514.704,413.266 513.5,415.5C 510.167,420.833 506.833,426.167 503.5,431.5C 503.167,431.5 502.833,431.5 502.5,431.5C 503.62,427.9 504.787,424.233 506,420.5C 507.333,417.833 509.333,415.833 512,414.5C 512.766,411.42 513.766,408.42 515,405.5C 516.011,406.337 517.178,406.67 518.5,406.5C 518.662,404.176 519.828,402.509 522,401.5C 522.834,398.828 523.668,396.161 524.5,393.5C 527.102,392.565 529.102,390.898 530.5,388.5C 531.736,387.754 533.07,387.421 534.5,387.5 Z"/></g>
<g><path style="opacity:1" fill="#c4ad57" d="M 519.5,407.5 C 518.471,410.891 516.471,413.557 513.5,415.5C 514.704,413.266 515.87,410.933 517,408.5C 517.671,407.748 518.504,407.414 519.5,407.5 Z"/></g>
<g><path style="opacity:1" fill="#352b16" d="M 375.5,403.5 C 378.241,405.975 380.241,408.975 381.5,412.5C 379.49,411.085 377.657,409.418 376,407.5C 375.51,406.207 375.343,404.873 375.5,403.5 Z"/></g>
<g><path style="opacity:1" fill="#c6b253" d="M 364.5,387.5 C 365.5,387.5 366.5,387.5 367.5,387.5C 370.037,393.036 373.37,398.036 377.5,402.5C 381.772,407.961 385.938,413.627 390,419.5C 391.122,421.407 391.955,423.407 392.5,425.5C 391.061,423.64 389.395,421.973 387.5,420.5C 386.92,418.251 385.587,416.585 383.5,415.5C 383.573,413.973 382.906,412.973 381.5,412.5C 380.241,408.975 378.241,405.975 375.5,403.5C 372.519,398.857 369.185,394.524 365.5,390.5C 365.443,389.391 365.11,388.391 364.5,387.5 Z"/></g>
<g><path style="opacity:1" fill="#21271f" d="M 531.5,392.5 C 530.275,395.525 529.775,398.525 530,401.5C 528.989,402.337 527.822,402.67 526.5,402.5C 526.5,403.5 526.5,404.5 526.5,405.5C 525.167,405.5 523.833,405.5 522.5,405.5C 525.117,400.886 528.117,396.553 531.5,392.5 Z"/></g>
<g><path style="opacity:1" fill="#2a250d" d="M 365.5,390.5 C 369.185,394.524 372.519,398.857 375.5,403.5C 373.629,403.141 372.129,402.141 371,400.5C 368.879,397.253 367.046,393.919 365.5,390.5 Z"/></g>
<g><path style="opacity:1" fill="#081e3e" d="M 335.5,351.5 C 336.29,352.401 337.29,353.068 338.5,353.5C 339.051,357.721 341.051,361.054 344.5,363.5C 346.623,367.44 348.957,371.107 351.5,374.5C 353.587,378.107 355.087,382.107 356,386.5C 356.743,388.441 356.576,390.274 355.5,392C 358.089,393.657 360.756,393.991 363.5,393C 365.882,395.547 366.549,398.38 365.5,401.5C 366.5,403.5 367.5,405.5 368.5,407.5C 370.709,410.566 373.543,411.232 377,409.5C 377.483,410.448 377.649,411.448 377.5,412.5C 376.5,412.5 375.5,412.5 374.5,412.5C 374.5,413.5 374.5,414.5 374.5,415.5C 375.5,415.5 376.5,415.5 377.5,415.5C 376.333,426.874 375,438.207 373.5,449.5C 374.795,452.802 373.462,454.135 369.5,453.5C 369.799,451.396 369.466,449.396 368.5,447.5C 367.548,449.045 367.215,450.712 367.5,452.5C 352.833,452.5 338.167,452.5 323.5,452.5C 323.167,416.827 323.5,381.16 324.5,345.5C 325.281,344.271 325.781,342.938 326,341.5C 327.784,344.76 329.284,348.093 330.5,351.5C 332.167,351.5 333.833,351.5 335.5,351.5 Z"/></g>
<g><path style="opacity:1" fill="#29270f" d="M 549.5,368.5 C 548.559,370.05 547.893,371.716 547.5,373.5C 546.143,375.836 544.81,378.17 543.5,380.5C 542.504,380.414 541.671,380.748 541,381.5C 538.802,385.02 536.635,388.52 534.5,392C 533.552,392.483 532.552,392.649 531.5,392.5C 532.248,390.668 533.248,389.001 534.5,387.5C 539.279,380.916 544.279,374.582 549.5,368.5 Z"/></g>
<g><path style="opacity:1" fill="#d8bc42" d="M 550.5,364.5 C 550.5,365.167 550.5,365.833 550.5,366.5C 550.167,367.167 549.833,367.833 549.5,368.5C 544.279,374.582 539.279,380.916 534.5,387.5C 535.668,381.816 538.168,376.816 542,372.5C 542.333,372.833 542.667,373.167 543,373.5C 544.969,370.801 546.136,367.801 546.5,364.5C 547.833,364.5 549.167,364.5 550.5,364.5 Z"/></g>
<g><path style="opacity:1" fill="#1c1e1a" d="M 559.5,354.5 C 559.608,356.514 558.942,358.18 557.5,359.5C 555.96,361.838 555.294,364.505 555.5,367.5C 554.022,367.238 552.689,367.571 551.5,368.5C 550.388,370.419 549.054,372.086 547.5,373.5C 547.893,371.716 548.559,370.05 549.5,368.5C 549.833,367.833 550.167,367.167 550.5,366.5C 552.587,365.415 553.92,363.749 554.5,361.5C 555.5,359.5 556.5,357.5 557.5,355.5C 558.167,355.167 558.833,354.833 559.5,354.5 Z"/></g>
<g><path style="opacity:1" fill="#554918" d="M 554.5,361.5 C 553.92,363.749 552.587,365.415 550.5,366.5C 550.5,365.833 550.5,365.167 550.5,364.5C 551.833,363.5 553.167,362.5 554.5,361.5 Z"/></g>
<g><path style="opacity:1" fill="#0a1e38" d="M 576.5,333.5 C 576.827,373.572 576.494,413.572 575.5,453.5C 559.405,453.418 543.405,453.418 527.5,453.5C 528.287,450.401 530.121,449.734 533,451.5C 535.524,450.896 538.024,450.229 540.5,449.5C 541.5,450 542.5,450.5 543.5,451C 554.161,451.5 564.828,451.667 575.5,451.5C 575.5,448.833 575.5,446.167 575.5,443.5C 574.167,443.5 572.833,443.5 571.5,443.5C 571.345,418.158 571.678,392.824 572.5,367.5C 568.948,365.461 565.781,362.794 563,359.5C 561.203,361.889 559.369,361.889 557.5,359.5C 558.942,358.18 559.608,356.514 559.5,354.5C 560.496,354.586 561.329,354.252 562,353.5C 567.539,347.161 572.372,340.494 576.5,333.5 Z"/></g>
<g><path style="opacity:1" fill="#e3c541" d="M 579.5,327.5 C 580.833,348.323 581.5,369.489 581.5,391C 581.5,412.336 581.167,433.503 580.5,454.5C 580.167,454.5 579.833,454.5 579.5,454.5C 579.5,412.167 579.5,369.833 579.5,327.5 Z"/></g>
<g><path style="opacity:1" fill="#94873a" d="M 579.5,327.5 C 579.5,369.833 579.5,412.167 579.5,454.5C 579.5,455.167 579.167,455.5 578.5,455.5C 578.832,413.33 578.499,371.33 577.5,329.5C 577.5,329.167 577.5,328.833 577.5,328.5C 577.842,327.662 578.508,327.328 579.5,327.5 Z"/></g>
<g><path style="opacity:1" fill="#292505" d="M 577.5,329.5 C 578.499,371.33 578.832,413.33 578.5,455.5C 562.167,455.5 545.833,455.5 529.5,455.5C 544.833,454.833 560.167,454.167 575.5,453.5C 576.833,433.845 577.5,413.845 577.5,393.5C 577.5,373.331 577.167,353.331 576.5,333.5C 572.372,340.494 567.539,347.161 562,353.5C 561.329,354.252 560.496,354.586 559.5,354.5C 561.025,352.784 562.025,350.784 562.5,348.5C 563.167,348.5 563.5,348.167 563.5,347.5C 566.323,344.525 568.656,341.192 570.5,337.5C 572.833,334.833 575.167,332.167 577.5,329.5 Z"/></g>
<g><path style="opacity:1" fill="#191c1c" d="M 576.5,333.5 C 577.167,353.331 577.5,373.331 577.5,393.5C 577.5,413.845 576.833,433.845 575.5,453.5C 576.494,413.572 576.827,373.572 576.5,333.5 Z"/></g>
<g><path style="opacity:1" fill="#0d1d2d" d="M 323.5,334.5 C 323.238,335.978 323.571,337.311 324.5,338.5C 328.895,342.339 332.562,346.673 335.5,351.5C 333.833,351.5 332.167,351.5 330.5,351.5C 329.284,348.093 327.784,344.76 326,341.5C 325.781,342.938 325.281,344.271 324.5,345.5C 323.5,381.16 323.167,416.827 323.5,452.5C 338.167,452.5 352.833,452.5 367.5,452.5C 367.215,450.712 367.548,449.045 368.5,447.5C 369.466,449.396 369.799,451.396 369.5,453.5C 353.833,453.5 338.167,453.5 322.5,453.5C 322.168,413.663 322.501,373.996 323.5,334.5 Z"/></g>
<g><path style="opacity:1" fill="#7a714a" d="M 321.5,329.5 C 320.549,330.919 320.216,332.585 320.5,334.5C 320.5,374.833 320.5,415.167 320.5,455.5C 320.167,455.5 319.833,455.5 319.5,455.5C 319.167,413.161 319.5,370.828 320.5,328.5C 321.107,328.624 321.44,328.957 321.5,329.5 Z"/></g>
<g><path style="opacity:1" fill="#dec23f" d="M 377.5,402.5 C 373.37,398.036 370.037,393.036 367.5,387.5C 366.5,387.5 365.5,387.5 364.5,387.5C 356.217,375.882 347.55,364.549 338.5,353.5C 332.858,345.518 327.192,337.518 321.5,329.5C 321.44,328.957 321.107,328.624 320.5,328.5C 319.5,370.828 319.167,413.161 319.5,455.5C 317.505,412.846 316.839,369.846 317.5,326.5C 319.5,326.5 321.5,326.5 323.5,326.5C 323.238,327.978 323.571,329.311 324.5,330.5C 327.351,331.012 328.684,332.679 328.5,335.5C 329.978,335.238 331.311,335.571 332.5,336.5C 333.4,339.838 334.4,342.505 335.5,344.5C 336.822,344.33 337.989,344.663 339,345.5C 339.792,349.079 341.125,352.412 343,355.5C 346.225,357.597 348.225,360.597 349,364.5C 352.954,366.689 356.121,369.689 358.5,373.5C 359.167,373.167 359.833,372.833 360.5,372.5C 361.588,376.326 362.921,379.993 364.5,383.5C 365.5,383.5 366.5,383.5 367.5,383.5C 367.5,384.5 367.5,385.5 367.5,386.5C 368.5,386.5 369.5,386.5 370.5,386.5C 373.349,391.538 375.682,396.872 377.5,402.5 Z"/></g>
<g><path style="opacity:1" fill="#272613" d="M 338.5,353.5 C 347.55,364.549 356.217,375.882 364.5,387.5C 365.11,388.391 365.443,389.391 365.5,390.5C 359.744,386.08 355.078,380.747 351.5,374.5C 348.957,371.107 346.623,367.44 344.5,363.5C 341.051,361.054 339.051,357.721 338.5,353.5 Z"/></g>
<g><path style="opacity:1" fill="#cdb350" d="M 562.5,348.5 C 562.025,350.784 561.025,352.784 559.5,354.5C 558.833,354.833 558.167,355.167 557.5,355.5C 557.884,353.071 558.551,350.737 559.5,348.5C 560.5,348.5 561.5,348.5 562.5,348.5 Z"/></g>
<g><path style="opacity:1" fill="#e3c22b" d="M 577.5,328.5 C 577.5,328.833 577.5,329.167 577.5,329.5C 575.167,332.167 572.833,334.833 570.5,337.5C 566.237,339.322 563.904,342.655 563.5,347.5C 563.5,348.167 563.167,348.5 562.5,348.5C 561.5,348.5 560.5,348.5 559.5,348.5C 558.551,350.737 557.884,353.071 557.5,355.5C 556.5,357.5 555.5,359.5 554.5,361.5C 553.167,362.5 551.833,363.5 550.5,364.5C 550.523,359.757 552.523,356.423 556.5,354.5C 556.859,352.234 556.192,350.401 554.5,349C 555.618,347.926 556.618,346.76 557.5,345.5C 558.192,346.025 558.692,346.692 559,347.5C 559.257,342.986 561.09,339.319 564.5,336.5C 566.743,335.526 569.076,335.192 571.5,335.5C 570.677,330.661 572.677,328.327 577.5,328.5 Z"/></g>
<g><path style="opacity:1" fill="#1b1d17" d="M 323.5,334.5 C 322.501,373.996 322.168,413.663 322.5,453.5C 338.167,453.5 353.833,453.5 369.5,453.5C 369.833,454.167 370.167,454.833 370.5,455.5C 353.833,455.5 337.167,455.5 320.5,455.5C 320.5,415.167 320.5,374.833 320.5,334.5C 321.652,333.375 322.652,333.375 323.5,334.5 Z"/></g>
<g><path style="opacity:1" fill="#d3b757" d="M 570.5,337.5 C 568.656,341.192 566.323,344.525 563.5,347.5C 563.904,342.655 566.237,339.322 570.5,337.5 Z"/></g>
<g><path style="opacity:1" fill="#252313" d="M 321.5,329.5 C 327.192,337.518 332.858,345.518 338.5,353.5C 337.29,353.068 336.29,352.401 335.5,351.5C 332.562,346.673 328.895,342.339 324.5,338.5C 323.571,337.311 323.238,335.978 323.5,334.5C 322.652,333.375 321.652,333.375 320.5,334.5C 320.216,332.585 320.549,330.919 321.5,329.5 Z"/></g>
<g><path style="opacity:1" fill="#d9bb3c" d="M 474.5,275.5 C 474.657,276.873 474.49,278.207 474,279.5C 466.953,287.192 461.62,295.859 458,305.5C 454.603,307.289 451.103,308.622 447.5,309.5C 447.5,308.5 447.5,307.5 447.5,306.5C 448.15,306.804 448.817,307.137 449.5,307.5C 450.84,306.133 452.173,304.8 453.5,303.5C 455.482,301.498 457.148,299.165 458.5,296.5C 461.141,292.518 463.807,288.518 466.5,284.5C 468.932,281.312 471.599,278.312 474.5,275.5 Z"/></g>
<g><path style="opacity:1" fill="#beab4c" d="M 438.5,294.5 C 442.471,297.776 445.471,301.776 447.5,306.5C 446.761,306.631 446.094,306.464 445.5,306C 443.707,303.205 441.54,300.705 439,298.5C 438.51,297.207 438.343,295.873 438.5,294.5 Z"/></g>
<g><path style="opacity:1" fill="#8c8437" d="M 458.5,296.5 C 457.148,299.165 455.482,301.498 453.5,303.5C 453.833,302.167 454.167,300.833 454.5,299.5C 455.833,298.5 457.167,297.5 458.5,296.5 Z"/></g>
<g><path style="opacity:1" fill="#201e14" d="M 431.5,283.5 C 434.179,284.855 436.846,286.189 439.5,287.5C 439.34,289.199 439.506,290.866 440,292.5C 442.167,295.333 444.333,298.167 446.5,301C 449.407,301.718 452.074,301.218 454.5,299.5C 454.167,300.833 453.833,302.167 453.5,303.5C 452.173,304.8 450.84,306.133 449.5,307.5C 448.817,307.137 448.15,306.804 447.5,306.5C 445.471,301.776 442.471,297.776 438.5,294.5C 436.588,290.583 434.255,286.917 431.5,283.5 Z"/></g>
<g><path style="opacity:1" fill="#22220c" d="M 466.5,284.5 C 463.807,288.518 461.141,292.518 458.5,296.5C 457.167,297.5 455.833,298.5 454.5,299.5C 456.951,295.718 458.951,291.718 460.5,287.5C 462.672,286.794 464.672,285.794 466.5,284.5 Z"/></g>
<g><path style="opacity:1" fill="#29240d" d="M 475.5,271.5 C 475.167,272.833 474.833,274.167 474.5,275.5C 471.599,278.312 468.932,281.312 466.5,284.5C 467.656,280.506 469.489,276.84 472,273.5C 472.816,272.177 473.983,271.511 475.5,271.5 Z"/></g>
<g><path style="opacity:1" fill="#cbb447" d="M 405.5,248.5 C 406.728,249.306 407.728,250.306 408.5,251.5C 410.482,254.81 412.815,257.81 415.5,260.5C 416.786,263.117 418.453,265.45 420.5,267.5C 423.934,272.716 427.601,277.716 431.5,282.5C 431.5,282.833 431.5,283.167 431.5,283.5C 434.255,286.917 436.588,290.583 438.5,294.5C 433.709,291.92 429.876,288.253 427,283.5C 424.677,278.363 422.177,273.363 419.5,268.5C 417.097,268.607 415.264,267.607 414,265.5C 414.334,261.895 412.834,259.561 409.5,258.5C 408.912,256.089 407.745,254.089 406,252.5C 405.51,251.207 405.343,249.873 405.5,248.5 Z"/></g>
<g><path style="opacity:1" fill="#1d1e1d" d="M 420.5,267.5 C 422.258,267.877 423.925,268.544 425.5,269.5C 426.761,274.289 428.761,278.622 431.5,282.5C 427.601,277.716 423.934,272.716 420.5,267.5 Z"/></g>
<g><path style="opacity:1" fill="#242613" d="M 415.5,260.5 C 418.835,261.461 420.501,263.794 420.5,267.5C 418.453,265.45 416.786,263.117 415.5,260.5 Z"/></g>
<g><path style="opacity:1" fill="#22240f" d="M 490.5,251.5 C 485.488,258.205 480.488,264.872 475.5,271.5C 476.606,268.946 477.439,266.279 478,263.5C 482.064,260.223 485.564,256.39 488.5,252C 489.094,251.536 489.761,251.369 490.5,251.5 Z"/></g>
<g><path style="opacity:1" fill="#25230d" d="M 408.5,251.5 C 412.416,253.194 414.75,256.194 415.5,260.5C 412.815,257.81 410.482,254.81 408.5,251.5 Z"/></g>
<g><path style="opacity:1" fill="#272313" d="M 399.5,238.5 C 402.019,238.848 403.853,240.181 405,242.5C 406.722,245.279 407.889,248.279 408.5,251.5C 407.728,250.306 406.728,249.306 405.5,248.5C 403.48,245.154 401.48,241.82 399.5,238.5 Z"/></g>
<g><path style="opacity:1" fill="#d0b840" d="M 393.5,231.5 C 395.5,233.833 397.5,236.167 399.5,238.5C 401.48,241.82 403.48,245.154 405.5,248.5C 402.56,247.069 399.726,245.403 397,243.5C 395.762,239.449 394.596,235.449 393.5,231.5 Z"/></g>
<g><path style="opacity:1" fill="#d2b945" d="M 505.5,232.5 C 503.669,237.148 501.836,241.814 500,246.5C 498.644,247.38 497.144,247.714 495.5,247.5C 494.388,251.057 492.722,254.39 490.5,257.5C 485.144,263.597 479.81,269.597 474.5,275.5C 474.833,274.167 475.167,272.833 475.5,271.5C 480.488,264.872 485.488,258.205 490.5,251.5C 494.493,245.839 498.493,240.172 502.5,234.5C 503.5,233.833 504.5,233.167 505.5,232.5 Z"/></g>
<g><path style="opacity:1" fill="#1f2214" d="M 502.5,234.5 C 498.493,240.172 494.493,245.839 490.5,251.5C 492.629,246.686 494.296,241.686 495.5,236.5C 497.921,236.122 500.254,235.455 502.5,234.5 Z"/></g>
<g><path style="opacity:1" fill="#a39248" d="M 511.5,223.5 C 510.241,227.025 508.241,230.025 505.5,232.5C 506.723,228.951 508.723,225.951 511.5,223.5 Z"/></g>
<g><path style="opacity:1" fill="#21210f" d="M 521.5,207.5 C 520.167,210.167 518.833,212.833 517.5,215.5C 515.122,217.878 513.122,220.545 511.5,223.5C 508.723,225.951 506.723,228.951 505.5,232.5C 504.5,233.167 503.5,233.833 502.5,234.5C 503.779,231.014 505.445,227.681 507.5,224.5C 511.965,218.508 516.632,212.842 521.5,207.5 Z"/></g>
<g><path style="opacity:1" fill="#bcae4f" d="M 517.5,215.5 C 516.448,218.193 515.448,220.86 514.5,223.5C 513.5,223.5 512.5,223.5 511.5,223.5C 513.122,220.545 515.122,217.878 517.5,215.5 Z"/></g>
<g><path style="opacity:1" fill="#1b1d1f" d="M 367.5,191.5 C 368.735,191.721 369.735,192.388 370.5,193.5C 371.85,192.05 373.516,191.383 375.5,191.5C 375.5,193.5 375.5,195.5 375.5,197.5C 372.795,197.38 372.128,198.38 373.5,200.5C 376.723,203.28 379.723,206.28 382.5,209.5C 386.931,218.781 392.431,227.448 399,235.5C 399.483,236.448 399.649,237.448 399.5,238.5C 397.5,236.167 395.5,233.833 393.5,231.5C 385.776,221.108 378.443,210.442 371.5,199.5C 370.618,196.615 369.284,193.948 367.5,191.5 Z"/></g>
<g><path style="opacity:1" fill="#b7a756" d="M 521.5,207.5 C 522.167,207.5 522.833,207.5 523.5,207.5C 522.687,210.989 520.687,213.656 517.5,215.5C 518.833,212.833 520.167,210.167 521.5,207.5 Z"/></g>
<g><path style="opacity:1" fill="#c6b04a" d="M 346.5,167.5 C 352.546,174.21 358.212,181.21 363.5,188.5C 363.5,188.833 363.5,189.167 363.5,189.5C 365.817,193.146 368.484,196.48 371.5,199.5C 378.443,210.442 385.776,221.108 393.5,231.5C 391.093,230.206 388.926,228.539 387,226.5C 384.503,220.164 380.336,215.164 374.5,211.5C 372.518,206.203 370.018,201.203 367,196.5C 361.641,191.285 357.141,185.285 353.5,178.5C 349.919,175.594 347.585,171.927 346.5,167.5 Z"/></g>
<g><path style="opacity:1" fill="#25200c" d="M 363.5,189.5 C 365.062,189.733 366.395,190.4 367.5,191.5C 369.284,193.948 370.618,196.615 371.5,199.5C 368.484,196.48 365.817,193.146 363.5,189.5 Z"/></g>
<g><path style="opacity:1" fill="#cbb442" d="M 546.5,175.5 C 544.273,180.953 541.773,186.287 539,191.5C 533.911,196.758 528.745,201.758 523.5,206.5C 524.833,204.167 526.167,201.833 527.5,199.5C 529.984,197.2 531.984,194.533 533.5,191.5C 537.887,186.123 542.22,180.79 546.5,175.5 Z"/></g>
<g><path style="opacity:1" fill="#222110" d="M 533.5,191.5 C 531.984,194.533 529.984,197.2 527.5,199.5C 528.294,197.127 529.294,194.794 530.5,192.5C 531.325,191.614 532.325,191.281 533.5,191.5 Z"/></g>
<g><path style="opacity:1" fill="#1e2115" d="M 554.5,161.5 C 554.833,161.5 555.167,161.5 555.5,161.5C 553.396,163.372 552.063,165.705 551.5,168.5C 549.1,170.296 547.433,172.63 546.5,175.5C 542.22,180.79 537.887,186.123 533.5,191.5C 535.439,187.058 537.606,182.725 540,178.5C 544.4,172.492 549.233,166.826 554.5,161.5 Z"/></g>
<g><path style="opacity:1" fill="#c7b249" d="M 551.5,168.5 C 551.704,172.281 550.037,174.614 546.5,175.5C 547.433,172.63 549.1,170.296 551.5,168.5 Z"/></g>
<g><path style="opacity:1" fill="#0a1e37" d="M 333.5,143.5 C 334.833,143.5 336.167,143.5 337.5,143.5C 337.162,147.151 338.828,148.817 342.5,148.5C 342.5,149.5 342.5,150.5 342.5,151.5C 343.822,151.33 344.989,151.663 346,152.5C 345.354,162.609 346.854,162.442 350.5,152C 349.971,150.441 349.304,148.941 348.5,147.5C 349.325,146.614 350.325,146.281 351.5,146.5C 351.5,150.833 351.5,155.167 351.5,159.5C 353.92,159.292 356.253,159.626 358.5,160.5C 358.302,165.442 358.635,170.442 359.5,175.5C 360.552,175.351 361.552,175.517 362.5,176C 361.594,177.699 361.261,179.533 361.5,181.5C 362.833,181.5 364.167,181.5 365.5,181.5C 366.576,184.734 367.243,188.068 367.5,191.5C 366.395,190.4 365.062,189.733 363.5,189.5C 363.5,189.167 363.5,188.833 363.5,188.5C 360.346,182.487 356.513,176.821 352,171.5C 351.846,168.475 350.346,166.809 347.5,166.5C 346.308,163.438 344.808,160.438 343,157.5C 340.21,154.884 337.71,152.218 335.5,149.5C 335.386,147.282 334.72,145.282 333.5,143.5 Z"/></g>
<g><path style="opacity:1" fill="#23220d" d="M 335.5,149.5 C 337.71,152.218 340.21,154.884 343,157.5C 344.808,160.438 346.308,163.438 347.5,166.5C 350.346,166.809 351.846,168.475 352,171.5C 356.513,176.821 360.346,182.487 363.5,188.5C 358.212,181.21 352.546,174.21 346.5,167.5C 342.833,161.5 339.167,155.5 335.5,149.5 Z"/></g>
<g><path style="opacity:1" fill="#cbb54a" d="M 568.5,143.5 C 568.833,143.5 569.167,143.5 569.5,143.5C 567.626,147.94 565.459,152.273 563,156.5C 560.233,158.599 558.233,161.266 557,164.5C 555.549,166.464 553.716,167.797 551.5,168.5C 552.063,165.705 553.396,163.372 555.5,161.5C 557.822,160.198 559.155,158.198 559.5,155.5C 562.975,151.896 565.975,147.896 568.5,143.5 Z"/></g>
<g><path style="opacity:1" fill="#2d280c" d="M 568.5,143.5 C 565.975,147.896 562.975,151.896 559.5,155.5C 561.551,150.707 564.551,146.707 568.5,143.5 Z"/></g>
<g><path style="opacity:1" fill="#938642" d="M 326.5,139.5 C 328.587,140.585 329.92,142.251 330.5,144.5C 328.413,143.415 327.08,141.749 326.5,139.5 Z"/></g>
<g><path style="opacity:1" fill="#e4cc49" d="M 135.5,132.5 C 135.5,132.167 135.5,131.833 135.5,131.5C 197.571,131.171 259.571,131.504 321.5,132.5C 321.5,133.167 321.167,133.5 320.5,133.5C 320.167,133.5 319.833,133.5 319.5,133.5C 258.336,132.501 197.002,132.168 135.5,132.5 Z"/></g>
<g><path style="opacity:1" fill="#9d9140" d="M 578.5,130.5 C 641.002,130.168 703.336,130.501 765.5,131.5C 765.167,131.5 764.833,131.5 764.5,131.5C 702.496,131.167 640.496,131.5 578.5,132.5C 577.048,133.94 576.048,135.606 575.5,137.5C 574.167,139.5 572.5,141.167 570.5,142.5C 572.178,137.803 574.844,133.803 578.5,130.5 Z"/></g>
<g><path style="opacity:1" fill="#9c913f" d="M 133.5,131.5 C 133.5,131.167 133.5,130.833 133.5,130.5C 196.509,129.837 259.176,130.504 321.5,132.5C 259.571,131.504 197.571,131.171 135.5,131.5C 134.833,131.5 134.167,131.5 133.5,131.5 Z"/></g>
<g><path style="opacity:1" fill="#302f13" d="M 133.5,130.5 C 133.5,129.833 133.833,129.5 134.5,129.5C 196.167,129.5 257.833,129.5 319.5,129.5C 320.552,129.351 321.552,129.517 322.5,130C 325.714,135.029 329.38,139.529 333.5,143.5C 334.72,145.282 335.386,147.282 335.5,149.5C 333.473,148.139 331.806,146.473 330.5,144.5C 329.92,142.251 328.587,140.585 326.5,139.5C 325.567,136.63 323.9,134.296 321.5,132.5C 259.176,130.504 196.509,129.837 133.5,130.5 Z"/></g>
<g><path style="opacity:1" fill="#13191e" d="M 575.5,128.5 C 634.167,128.5 692.833,128.5 751.5,128.5C 753.735,128.205 755.735,128.539 757.5,129.5C 697.664,129.168 637.998,129.501 578.5,130.5C 574.844,133.803 572.178,137.803 570.5,142.5C 569.833,142.5 569.5,142.833 569.5,143.5C 569.167,143.5 568.833,143.5 568.5,143.5C 564.551,146.707 561.551,150.707 559.5,155.5C 559.155,158.198 557.822,160.198 555.5,161.5C 555.167,161.5 554.833,161.5 554.5,161.5C 553.962,159.883 553.629,158.216 553.5,156.5C 554.822,156.67 555.989,156.337 557,155.5C 556.563,151.557 558.229,149.224 562,148.5C 562.483,147.552 562.649,146.552 562.5,145.5C 561.5,145.5 560.5,145.5 559.5,145.5C 559.5,144.5 559.5,143.5 559.5,142.5C 561.981,142.677 563.814,141.677 565,139.5C 566.049,140.517 567.216,140.684 568.5,140C 570.414,137.383 572.414,134.883 574.5,132.5C 575.429,131.311 575.762,129.978 575.5,128.5 Z"/></g>
<g><path style="opacity:1" fill="#112131" d="M 751.5,128.5 C 692.833,128.5 634.167,128.5 575.5,128.5C 575.369,127.624 575.702,126.957 576.5,126.5C 578.409,127.348 580.409,127.682 582.5,127.5C 582.343,126.127 582.51,124.793 583,123.5C 585.176,123.988 587.009,124.988 588.5,126.5C 642.998,127.167 697.332,127.833 751.5,128.5 Z"/></g>
<g><path style="opacity:1" fill="#111e2a" d="M 319.5,129.5 C 257.833,129.5 196.167,129.5 134.5,129.5C 162.325,128.167 190.492,127.5 219,127.5C 247.167,127.667 275.333,127.833 303.5,128C 309.016,128.173 314.349,128.673 319.5,129.5 Z"/></g>
<g><path style="opacity:1" fill="#071e3d" d="M 3.5,2.5 C 301.5,2.5 599.5,2.5 897.5,2.5C 897.5,3.83333 897.5,5.16667 897.5,6.5C 895.96,8.83825 895.294,11.5049 895.5,14.5C 598.097,14.1667 301.43,14.5001 5.5,15.5C 5.33333,308.834 5.5,602.167 6,895.5C 6.80678,891.551 7.30678,891.551 7.5,895.5C 8.87344,895.657 10.2068,895.49 11.5,895C 12.3841,893.28 13.7175,892.114 15.5,891.5C 15.5,893.167 15.5,894.833 15.5,896.5C 11.5,896.5 7.5,896.5 3.5,896.5C 3.5,598.5 3.5,300.5 3.5,2.5 Z"/></g>
</svg>
