<?xml version="1.0" encoding="UTF-8"?>
<svg version="1.1" xmlns="http://www.w3.org/2000/svg" width="225" height="225">
<path d="M0 0 C74.25 0 148.5 0 225 0 C225 74.25 225 148.5 225 225 C150.75 225 76.5 225 0 225 C0 150.75 0 76.5 0 0 Z " fill="#757579" transform="translate(0,0)"/>
<path d="M0 0 C74.25 0 148.5 0 225 0 C225 21.45 225 42.9 225 65 C150.75 65 76.5 65 0 65 C0 43.55 0 22.1 0 0 Z " fill="#7F7F7F" transform="translate(0,160)"/>
<path d="M0 0 C74.25 0 148.5 0 225 0 C225 10.23 225 20.46 225 31 C150.75 31 76.5 31 0 31 C0 20.77 0 10.54 0 0 Z " fill="#6D6D74" transform="translate(0,77)"/>
<path d="M0 0 C74.25 0 148.5 0 225 0 C225 8.91 225 17.82 225 27 C150.75 27 76.5 27 0 27 C0 18.09 0 9.18 0 0 Z " fill="#5E5E61" transform="translate(0,50)"/>
<path d="M0 0 C74.25 0 148.5 0 225 0 C225 4.95 225 9.9 225 15 C205.408903 15.15657439 185.81776162 15.30473781 166.22652626 15.4429636 C157.12135997 15.50739665 148.01622834 15.57438733 138.91113281 15.64819336 C92.58948922 16.02203062 46.3145345 15.96651043 0 15 C0 10.05 0 5.1 0 0 Z " fill="#616166" transform="translate(0,35)"/>
<path d="M0 0 C74.25 0 148.5 0 225 0 C225 4.95 225 9.9 225 15 C150.75 15 76.5 15 0 15 C0 10.05 0 5.1 0 0 Z " fill="#6A6A72" transform="translate(0,77)"/>
<path d="M0 0 C74.25 0 148.5 0 225 0 C225 4.29 225 8.58 225 13 C150.75 13 76.5 13 0 13 C0 8.71 0 4.42 0 0 Z " fill="#67676D" transform="translate(0,22)"/>
<path d="M0 0 C74.25 0 148.5 0 225 0 C225 2.97 225 5.94 225 9 C150.75 9 76.5 9 0 9 C0 6.03 0 3.06 0 0 Z " fill="#6A6972" transform="translate(0,0)"/>
<path d="M0 0 C74.25 0 148.5 0 225 0 C225 2.97 225 5.94 225 9 C150.75 9 76.5 9 0 9 C0 6.03 0 3.06 0 0 Z " fill="#616163" transform="translate(0,50)"/>
<path d="M0 0 C74.25 0 148.5 0 225 0 C225 2.31 225 4.62 225 7 C205.40890597 7.15690138 185.81776111 7.30473782 166.22652626 7.4429636 C157.12135997 7.50739665 148.01622834 7.57438733 138.91113281 7.64819336 C92.58984043 8.02202779 46.31414646 7.97515072 0 7 C0 4.69 0 2.38 0 0 Z " fill="#69696E" transform="translate(0,43)"/>
<path d="M0 0 C74.25 0 148.5 0 225 0 C225 2.31 225 4.62 225 7 C150.75 7 76.5 7 0 7 C0 4.69 0 2.38 0 0 Z " fill="#696871" transform="translate(0,77)"/>
<path d="M0 0 C74.25 0 148.5 0 225 0 C225 2.31 225 4.62 225 7 C150.75 7 76.5 7 0 7 C0 4.69 0 2.38 0 0 Z " fill="#707071" transform="translate(0,59)"/>
<path d="M0 0 C74.25 0 148.5 0 225 0 C225 0.99 225 1.98 225 3 C201.93753648 3.17181581 178.87503589 3.33819367 155.8125 3.5 C154.96555761 3.50594854 154.11861523 3.51189708 153.24600792 3.51802588 C69.42477785 4.10615044 69.42477785 4.10615044 29.25 4.0625 C28.45593876 4.06164398 27.66187752 4.06078796 26.84375381 4.05990601 C17.89580863 4.04946394 8.94789928 4.03124128 0 4 C0 2.68 0 1.36 0 0 Z " fill="#606063" transform="translate(0,59)"/>
<path d="M0 0 C74.25 0 148.5 0 225 0 C225 0.99 225 1.98 225 3 C205.99948 3.13335584 186.99894178 3.26378623 167.99838066 3.39115143 C159.16687991 3.45041228 150.33538635 3.51048469 141.50390625 3.57275391 C94.33517213 3.90477527 47.16992818 4.07534034 0 4 C0 2.68 0 1.36 0 0 Z " fill="#5B5B5F" transform="translate(0,43)"/>
<path d="M0 0 C74.25 0 148.5 0 225 0 C225 0.99 225 1.98 225 3 C212.47806222 3.13317851 199.95609934 3.26368391 187.43410206 3.39115143 C181.61401353 3.45047296 175.79393573 3.51057714 169.97387695 3.57275391 C126.22492458 4.03894291 82.49977328 4.16494871 38.7522583 3.53643799 C34.34463574 3.47381809 29.93696416 3.41484185 25.52929688 3.35546875 C17.01948235 3.24034595 8.50972549 3.12152634 0 3 C0 2.01 0 1.02 0 0 Z " fill="#44444F" transform="translate(0,9)"/>
<path d="M0 0 C74.25 0 148.5 0 225 0 C225 0.99 225 1.98 225 3 C150.75 3 76.5 3 0 3 C0 2.01 0 1.02 0 0 Z " fill="#A6A6A7" transform="translate(0,160)"/>
<path d="M0 0 C74.25 0 148.5 0 225 0 C225 0.99 225 1.98 225 3 C150.75 3 76.5 3 0 3 C0 2.01 0 1.02 0 0 Z " fill="#48484D" transform="translate(0,77)"/>
<path d="M0 0 C74.25 0 148.5 0 225 0 C225 0.99 225 1.98 225 3 C150.75 3 76.5 3 0 3 C0 2.01 0 1.02 0 0 Z " fill="#A0A0A4" transform="translate(0,66)"/>
<path d="M0 0 C74.25 0 148.5 0 225 0 C225 0.99 225 1.98 225 3 C150.75 3 76.5 3 0 3 C0 2.01 0 1.02 0 0 Z " fill="#8F8F99" transform="translate(0,22)"/>
<path d="M0 0 C74.25 0 148.5 0 225 0 C225 0.99 225 1.98 225 3 C150.75 3 76.5 3 0 3 C0 2.01 0 1.02 0 0 Z " fill="#47474C" transform="translate(0,19)"/>
<path d="M0 0 C74.25 0 148.5 0 225 0 C225 0.99 225 1.98 225 3 C150.75 3 76.5 3 0 3 C0 2.01 0 1.02 0 0 Z " fill="#8D8D98" transform="translate(0,0)"/>
<path d="M0 0 C74.25 0 148.5 0 225 0 C225 0.99 225 1.98 225 3 C150.75 3 76.5 3 0 3 C0 2.01 0 1.02 0 0 Z " fill="#98989F" transform="translate(0,74)"/>
<path d="M0 0 C74.25 0 148.5 0 225 0 C225 0.99 225 1.98 225 3 C150.75 3 76.5 3 0 3 C0 2.01 0 1.02 0 0 Z " fill="#A3A3A5" transform="translate(0,50)"/>
<path d="M0 0 C74.25 0 148.5 0 225 0 C225 0.99 225 1.98 225 3 C150.75 3 76.5 3 0 3 C0 2.01 0 1.02 0 0 Z " fill="#94949A" transform="translate(0,12)"/>
<path d="M0 0 C9.00004765 0.01152439 18.00009644 0.01676031 27.00014973 0.021703 C45.39250754 0.03193275 63.78485148 0.04931398 82.17719793 0.07202661 C82.17719793 1.06202661 82.17719793 2.05202661 82.17719793 3.07202661 C7.92719793 3.07202661 -66.32280207 3.07202661 -142.82280207 3.07202661 C-142.82280207 2.41202661 -142.82280207 1.75202661 -142.82280207 1.07202661 C-95.21226293 0.1892046 -47.61798178 -0.06213963 0 0 Z " fill="#8B8B93" transform="translate(142.82280206680298,39.92797338962555)"/>
<path d="M0 0 C8.59389048 0.01157407 17.18778223 0.01677161 25.78167868 0.021703 C43.3269052 0.03190005 60.87211633 0.04924769 78.41733098 0.07202661 C78.41733098 1.06202661 78.41733098 2.05202661 78.41733098 3.07202661 C4.16733098 3.07202661 -70.08266902 3.07202661 -146.58266902 3.07202661 C-146.58266902 2.41202661 -146.58266902 1.75202661 -146.58266902 1.07202661 C-97.71894055 0.26392959 -48.87007165 -0.06709034 0 0 Z " fill="#9C9C9D" transform="translate(146.5826690196991,55.92797338962555)"/>
<path d="M0 0 C17.62499116 -0.03117453 35.24998498 -0.05127149 52.875 -0.0625 C53.86775995 -0.06315145 53.86775995 -0.06315145 54.88057566 -0.06381607 C96.40229907 -0.09031415 137.91753048 0.07381944 179.4375 0.5 C180.60316246 0.51195782 181.76882492 0.52391563 182.96981049 0.53623581 C196.9799891 0.68084685 210.99004699 0.83499679 225 1 C225 1.66 225 2.32 225 3 C150.75 3 76.5 3 0 3 C0 2.01 0 1.02 0 0 Z " fill="#7E7E89" transform="translate(0,32)"/>
<path d="M0 0 C74.25 0 148.5 0 225 0 C225 0.99 225 1.98 225 3 C175.17 3 125.34 3 74 3 C74 2.34 74 1.68 74 1 C49.58 1 25.16 1 0 1 C0 0.67 0 0.34 0 0 Z " fill="#484848" transform="translate(0,163)"/>
<path d="M0 0 C24.42 0 48.84 0 74 0 C74 0.66 74 1.32 74 2 C123.83 2 173.66 2 225 2 C225 2.33 225 2.66 225 3 C150.75 3 76.5 3 0 3 C0 2.01 0 1.02 0 0 Z " fill="#C9C9CA" transform="translate(0,164)"/>
</svg>
